<?xml version="1.0" standalone="no"?>
<!DOCTYPE svg PUBLIC "-//W3C//DTD SVG 20010904//EN"
 "http://www.w3.org/TR/2001/REC-SVG-20010904/DTD/svg10.dtd">
<svg version="1.0" xmlns="http://www.w3.org/2000/svg"
 width="270.000000pt" height="270.000000pt" viewBox="0 0 270.000000 270.000000"
 preserveAspectRatio="xMidYMid meet">
<metadata>
Created by potrace 1.11, written by Peter Selinger 2001-2013
</metadata>
<g transform="translate(0.000000,270.000000) scale(0.100000,-0.100000)"
fill="#000000" stroke="none">
<path d="M1255 2687 c-22 -8 -110 -50 -195 -94 -85 -44 -236 -122 -335 -173
-639 -328 -612 -313 -658 -364 -65 -73 -62 -43 -65 -685 -3 -665 -4 -657 71
-733 23 -23 63 -54 87 -66 25 -13 139 -73 255 -132 116 -60 307 -159 425 -220
365 -189 410 -209 473 -216 55 -6 157 9 182 26 15 11 384 202 910 471 191 98
249 144 278 225 15 44 17 102 17 620 0 639 0 636 -69 711 -41 46 -55 54 -326
193 -110 57 -294 152 -410 211 -454 235 -442 230 -525 235 -47 2 -90 -1 -115
-9z m400 -237 c560 -287 831 -428 858 -444 10 -6 26 -29 37 -52 19 -39 20 -63
20 -602 0 -604 0 -602 -51 -648 -23 -21 -75 -48 -504 -269 -104 -54 -244 -126
-310 -160 -288 -150 -302 -156 -354 -157 -51 0 -122 34 -686 327 -66 34 -196
102 -290 150 -177 91 -208 112 -231 157 -21 40 -21 1156 0 1196 24 45 54 66
231 157 94 48 224 116 290 150 423 219 622 319 649 325 56 11 98 -5 341 -130z"/>
<path d="M1304 2445 c-21 -6 -111 -49 -199 -95 -242 -126 -402 -208 -600 -310
-194 -100 -232 -127 -240 -174 -3 -17 -4 -188 -3 -379 l3 -348 36 33 c20 18
69 62 109 98 40 36 87 78 104 93 102 93 161 89 276 -18 50 -48 94 -85 100 -85
3 0 23 17 46 38 61 55 194 174 218 195 12 10 35 31 52 47 47 44 106 64 166 57
57 -7 84 -23 155 -87 27 -25 80 -72 117 -105 38 -33 78 -69 90 -80 132 -119
190 -171 200 -177 6 -3 42 23 81 59 131 121 169 121 307 0 51 -45 95 -85 96
-89 2 -5 8 -8 13 -8 6 0 9 148 7 389 l-3 389 -25 27 c-23 25 -114 74 -535 290
-104 54 -251 129 -325 168 -149 78 -188 89 -246 72z"/>
<path d="M1288 1452 c-24 -20 -63 -55 -87 -77 -54 -49 -48 -44 -151 -135 -122
-108 -150 -133 -174 -155 -37 -34 -173 -155 -195 -174 -30 -26 -156 -139 -203
-182 l-40 -36 134 -68 c73 -37 187 -96 253 -130 388 -202 475 -244 506 -246
37 -2 98 9 114 21 6 4 73 40 150 80 77 40 194 101 260 135 66 34 185 95 264
135 l143 73 -43 39 c-24 22 -77 69 -118 106 -82 74 -82 74 -170 152 -70 61
-73 64 -192 171 -46 41 -109 98 -139 125 -31 27 -91 81 -134 119 -111 99 -116
101 -178 47z"/>
<path d="M603 1283 c-11 -10 -51 -46 -89 -80 -38 -34 -78 -70 -90 -80 -11 -10
-53 -47 -92 -82 l-72 -64 0 -79 c0 -75 2 -80 33 -113 l32 -35 41 38 c61 56
194 175 218 195 12 10 55 49 96 87 41 37 85 76 98 87 l23 18 -33 29 c-18 16
-50 44 -71 63 -42 37 -65 41 -94 16z"/>
<path d="M2092 1114 l-60 -55 41 -37 c23 -20 47 -41 53 -47 6 -5 46 -41 89
-80 43 -38 96 -87 119 -107 39 -35 42 -36 60 -20 50 46 65 158 25 193 -12 10
-55 49 -97 86 -130 118 -137 123 -153 123 -9 0 -44 -25 -77 -56z"/>
</g>
</svg>
