<svg width="58" height="70" viewBox="0 0 58 70" fill="none" xmlns="http://www.w3.org/2000/svg">
<path d="M45.3439 39.8471V24.0886C45.3439 19.0646 40.8314 12.0375 38.8913 9.24957C37.2448 6.88365 35.4713 4.68945 33.8975 3.07111C31.8318 0.947187 30.3214 0 29 0C27.6786 0 26.1681 0.947187 24.1026 3.07111C22.5287 4.68945 20.7553 6.88365 19.1089 9.24957C17.1688 12.0375 12.6562 19.0647 12.6562 24.0886V39.8471C5.96931 39.9837 0.571381 45.4651 0.571381 52.1842V67.9492C0.571381 69.0818 1.48958 70 2.62216 70H4.2889C8.89837 70 13.1078 68.2574 16.2947 65.3969L18.0447 68.8717C18.3931 69.5636 19.1016 70 19.8762 70H38.1236C38.8983 70 39.6069 69.5636 39.9551 68.8717L41.7055 65.3961C44.8927 68.2566 49.1017 70 53.7112 70H55.3778C56.5104 70 57.4286 69.0818 57.4286 67.9492V52.1842C57.4287 45.4651 52.0308 39.9837 45.3439 39.8471ZM16.7576 26.1394H41.2423V55.6343H16.7576V26.1394ZM22.0619 12.1946C25.1957 7.56793 27.9456 4.87621 29 4.20807C30.0544 4.87621 32.8045 7.56779 35.9381 12.1946C38.4519 15.9063 40.2328 19.4555 40.9236 22.0378H17.0763C17.7672 19.4555 19.5481 15.9063 22.0619 12.1946ZM4.67281 65.8932V52.1842C4.67281 47.727 8.23118 44.0877 12.6561 43.9519V57.6851C12.6561 58.0054 12.7311 58.3213 12.8754 58.6075L14.3633 61.5617C11.9119 64.1443 8.48152 65.7892 4.67281 65.8932ZM36.8604 65.8984H21.1396L18.036 59.7358H39.9642L36.8604 65.8984ZM53.3272 65.8932C49.5183 65.7892 46.0887 64.1435 43.6375 61.5605L45.1247 58.6075C45.269 58.3213 45.344 58.0054 45.344 57.6851V43.9519C49.7688 44.0877 53.3273 47.727 53.3273 52.1842V65.8932H53.3272Z" fill="#1A3060"/>
<path d="M31.1502 38.8716C29.8736 38.4204 28.4672 37.8796 27.7147 37.2894C27.6737 37.2572 27.5926 37.0308 27.6529 36.7115C27.6831 36.5514 27.8212 36.0172 28.3327 35.8631C29.4372 35.5301 30.1776 35.9581 30.4443 36.1576C31.3511 36.8359 32.6366 36.6502 33.3147 35.7431C33.993 34.8359 33.8073 33.5508 32.9002 32.8725C32.6155 32.6597 31.9702 32.2331 31.0509 31.9422V31.7744C31.0509 30.6418 30.1327 29.7236 29.0001 29.7236C27.8676 29.7236 26.9494 30.6418 26.9494 31.7744V32.004C25.2394 32.6 23.9727 34.0926 23.6224 35.9516C23.2841 37.7465 23.8822 39.4957 25.1835 40.5163C26.3996 41.4701 28.113 42.1481 29.7834 42.7384C30.5597 43.0128 30.8888 43.5358 30.7615 44.2926C30.6632 44.8771 30.1599 45.8686 28.8965 45.8771C27.5703 45.8862 27.2551 45.8369 26.2863 45.2032C25.3383 44.583 24.0675 44.849 23.4474 45.7968C22.8274 46.7447 23.0932 48.0156 24.0411 48.6357C25.1358 49.3518 25.9979 49.6992 26.9492 49.8581V49.9989C26.9492 51.1315 27.8674 52.0497 29 52.0497C30.1326 52.0497 31.0508 51.1315 31.0508 49.9989V49.5763C32.9818 48.832 34.4455 47.1177 34.8062 44.9727C35.2627 42.2579 33.7934 39.8059 31.1502 38.8716V38.8716Z" fill="#1A3060"/>
</svg>
