<svg width="71" height="70" viewBox="0 0 71 70" fill="none" xmlns="http://www.w3.org/2000/svg">
<path d="M64.1395 47.9995C65.8079 46.368 66.8477 44.0866 66.8477 41.5639C66.8477 37.329 63.9209 33.7724 60.0002 32.836V26.836C60.0002 25.7034 59.082 24.7852 57.9495 24.7852H52.1828V18.5742C52.1828 17.4416 51.2646 16.5234 50.132 16.5234H49.4484V12.3633H49.4769C50.6095 12.3633 51.5277 11.4451 51.5277 10.3126V2.05078C51.5277 0.918203 50.6095 0 49.4769 0H21.2037C20.0711 0 19.1529 0.918203 19.1529 2.05078V8.26178H19.1245C17.9919 8.26178 17.0737 9.17998 17.0737 10.3126V18.5743C17.0737 19.7069 17.9919 20.6251 19.1245 20.6251H19.8081V24.7853H14.0171C12.8845 24.7853 11.9663 25.7035 11.9663 26.8361V32.8362C8.04562 33.7725 5.11888 37.329 5.11888 41.564C5.11888 44.0867 6.15863 46.368 7.82701 47.9996C3.75484 50.2064 0.983276 54.5191 0.983276 59.4672V67.9492C0.983276 69.0818 1.90148 70 3.03406 70H68.9325C70.0651 70 70.9833 69.0818 70.9833 67.9492V59.4672C70.9833 54.5191 68.2117 50.2064 64.1395 47.9995ZM62.7461 41.5639C62.7461 44.2489 60.5944 46.4332 57.9495 46.4332C55.3045 46.4332 53.1527 44.2488 53.1527 41.5639C53.1527 38.879 55.3045 36.6945 57.9495 36.6945C60.5944 36.6945 62.7461 38.8788 62.7461 41.5639ZM55.8987 32.836C51.978 33.7724 49.0511 37.3289 49.0511 41.5639C49.0511 44.0866 50.0909 46.3679 51.7594 47.9995C49.8098 49.0561 48.1584 50.5952 46.9663 52.4558C45.7744 50.5952 44.123 49.0561 42.1734 47.9995C43.8417 46.368 44.8815 44.0866 44.8815 41.5639C44.8815 37.3334 41.9609 33.7798 38.0462 32.8389V28.8868H55.8987V32.836ZM31.1866 41.5639C31.1866 38.8788 33.3383 36.6945 35.9833 36.6945C38.6282 36.6945 40.7799 38.879 40.7799 41.5639C40.7799 44.2488 38.6282 46.4332 35.9833 46.4332C33.3383 46.4332 31.1866 44.2488 31.1866 41.5639ZM45.3469 16.5234H21.1753V12.3633H21.2037H45.3469V16.5234ZM23.2545 4.10156H47.4261V8.26178H47.3977H23.2545V4.10156ZM23.9096 20.625H48.0812V24.7852H23.9096V20.625ZM33.9447 28.8868V32.8331C30.0178 33.7652 27.0851 37.3245 27.0851 41.5637C27.0851 44.0865 28.1248 46.3678 29.7932 47.9994C27.8436 49.0559 26.1922 50.5951 25.0002 52.4557C23.8083 50.5951 22.1568 49.0559 20.2072 47.9994C21.8755 46.3679 22.9154 44.0865 22.9154 41.5637C22.9154 37.3289 19.9887 33.7723 16.0679 32.8359V28.8866H33.9447V28.8868ZM9.22044 41.5639C9.22044 38.8788 11.3721 36.6945 14.0171 36.6945C16.662 36.6945 18.8139 38.879 18.8139 41.5639C18.8139 44.2488 16.662 46.4332 14.0171 46.4332C11.3721 46.4332 9.22044 44.2488 9.22044 41.5639ZM5.08484 59.4672C5.08484 54.5419 9.09193 50.5348 14.0171 50.5348C18.9424 50.5348 22.9495 54.5419 22.9495 59.4672V65.8984H5.08484V59.4672ZM27.051 59.4672C27.051 54.5419 31.0581 50.5348 35.9833 50.5348C40.9084 50.5348 44.9155 54.5419 44.9155 59.4672V65.8984H27.051V59.4672ZM66.8817 65.8984H49.0171V59.4672C49.0171 54.5419 53.0242 50.5348 57.9495 50.5348C62.8746 50.5348 66.8817 54.5419 66.8817 59.4672V65.8984Z" fill="#1A3060"/>
</svg>
