<svg width="30" height="30" viewBox="0 0 30 30" fill="none" xmlns="http://www.w3.org/2000/svg">
<g clip-path="url(#clip0)">
<path d="M21.0754 23.959L18.2912 21.1748C17.4879 20.3716 16.1808 20.3716 15.3776 21.1748L14.1544 22.398C11.3607 20.9351 9.06484 18.6393 7.60187 15.8455L8.82514 14.6222C9.62834 13.819 9.62834 12.5119 8.82514 11.7087L6.04099 8.92453C5.23773 8.12127 3.93068 8.12127 3.12742 8.92453L0.900096 11.1519C-0.263693 12.3156 -0.30008 14.3672 0.797616 16.9285C1.78715 19.2374 3.60332 21.7802 5.9115 24.0884C8.21969 26.3966 10.7625 28.2128 13.0714 29.2023C14.3129 29.7343 15.4344 29.9999 16.3932 29.9999C17.4127 29.9999 18.2483 29.6996 18.848 29.0999L21.0753 26.8726C21.4645 26.4834 21.6788 25.9661 21.6788 25.4157C21.6788 24.8655 21.4645 24.3482 21.0754 23.959ZM19.8322 25.6295L17.6049 27.8568C17.0018 28.4598 15.5661 28.3588 13.7639 27.5865C11.6556 26.6829 9.30836 24.9992 7.15451 22.8453C5.00072 20.6915 3.31691 18.3443 2.41334 16.236C1.64107 14.434 1.53994 12.9981 2.14305 12.395L4.37037 10.1677C4.48826 10.0499 4.67998 10.0499 4.79781 10.1677L7.58195 12.9519C7.69978 13.0697 7.69978 13.2615 7.58195 13.3792L5.47346 15.4878L5.73865 16.0476C7.44115 19.6417 10.3582 22.5588 13.9524 24.2613L14.5122 24.5265L16.6207 22.418C16.6977 22.341 16.7877 22.3294 16.8344 22.3294C16.8811 22.3294 16.971 22.3409 17.048 22.4179L19.8321 25.202C19.9091 25.279 19.9207 25.369 19.9207 25.4157C19.9208 25.4626 19.9092 25.5525 19.8322 25.6295Z" fill="url(#paint0_linear)"/>
<path d="M21.0754 23.959L18.2912 21.1748C17.4879 20.3716 16.1808 20.3716 15.3776 21.1748L14.1544 22.398C11.3607 20.9351 9.06484 18.6393 7.60187 15.8455L8.82514 14.6222C9.62834 13.819 9.62834 12.5119 8.82514 11.7087L6.04099 8.92453C5.23773 8.12127 3.93068 8.12127 3.12742 8.92453L0.900096 11.1519C-0.263693 12.3156 -0.30008 14.3672 0.797616 16.9285C1.78715 19.2374 3.60332 21.7802 5.9115 24.0884C8.21969 26.3966 10.7625 28.2128 13.0714 29.2023C14.3129 29.7343 15.4344 29.9999 16.3932 29.9999C17.4127 29.9999 18.2483 29.6996 18.848 29.0999L21.0753 26.8726C21.4645 26.4834 21.6788 25.9661 21.6788 25.4157C21.6788 24.8655 21.4645 24.3482 21.0754 23.959ZM19.8322 25.6295L17.6049 27.8568C17.0018 28.4598 15.5661 28.3588 13.7639 27.5865C11.6556 26.6829 9.30836 24.9992 7.15451 22.8453C5.00072 20.6915 3.31691 18.3443 2.41334 16.236C1.64107 14.434 1.53994 12.9981 2.14305 12.395L4.37037 10.1677C4.48826 10.0499 4.67998 10.0499 4.79781 10.1677L7.58195 12.9519C7.69978 13.0697 7.69978 13.2615 7.58195 13.3792L5.47346 15.4878L5.73865 16.0476C7.44115 19.6417 10.3582 22.5588 13.9524 24.2613L14.5122 24.5265L16.6207 22.418C16.6977 22.341 16.7877 22.3294 16.8344 22.3294C16.8811 22.3294 16.971 22.3409 17.048 22.4179L19.8321 25.202C19.9091 25.279 19.9207 25.369 19.9207 25.4157C19.9208 25.4626 19.9092 25.5525 19.8322 25.6295Z" fill="url(#paint1_linear)"/>
<path d="M21.0754 23.959L18.2912 21.1748C17.4879 20.3716 16.1808 20.3716 15.3776 21.1748L14.1544 22.398C11.3607 20.9351 9.06484 18.6393 7.60187 15.8455L8.82514 14.6222C9.62834 13.819 9.62834 12.5119 8.82514 11.7087L6.04099 8.92453C5.23773 8.12127 3.93068 8.12127 3.12742 8.92453L0.900096 11.1519C-0.263693 12.3156 -0.30008 14.3672 0.797616 16.9285C1.78715 19.2374 3.60332 21.7802 5.9115 24.0884C8.21969 26.3966 10.7625 28.2128 13.0714 29.2023C14.3129 29.7343 15.4344 29.9999 16.3932 29.9999C17.4127 29.9999 18.2483 29.6996 18.848 29.0999L21.0753 26.8726C21.4645 26.4834 21.6788 25.9661 21.6788 25.4157C21.6788 24.8655 21.4645 24.3482 21.0754 23.959ZM19.8322 25.6295L17.6049 27.8568C17.0018 28.4598 15.5661 28.3588 13.7639 27.5865C11.6556 26.6829 9.30836 24.9992 7.15451 22.8453C5.00072 20.6915 3.31691 18.3443 2.41334 16.236C1.64107 14.434 1.53994 12.9981 2.14305 12.395L4.37037 10.1677C4.48826 10.0499 4.67998 10.0499 4.79781 10.1677L7.58195 12.9519C7.69978 13.0697 7.69978 13.2615 7.58195 13.3792L5.47346 15.4878L5.73865 16.0476C7.44115 19.6417 10.3582 22.5588 13.9524 24.2613L14.5122 24.5265L16.6207 22.418C16.6977 22.341 16.7877 22.3294 16.8344 22.3294C16.8811 22.3294 16.971 22.3409 17.048 22.4179L19.8321 25.202C19.9091 25.279 19.9207 25.369 19.9207 25.4157C19.9208 25.4626 19.9092 25.5525 19.8322 25.6295Z" fill="url(#paint2_linear)"/>
<path d="M27.2901 2.27121C25.5814 0.806602 23.318 0 20.917 0C18.516 0 16.2525 0.806602 14.5438 2.27121C12.7964 3.76904 11.834 5.77195 11.834 7.91098C11.834 10.05 12.7964 12.0529 14.5438 13.5507C14.857 13.8191 15.1889 14.0653 15.5368 14.2885C14.8945 15.2563 14.1436 16.1458 13.299 16.9371C15.1412 16.7848 16.8879 16.2966 18.4789 15.5351C19.2633 15.724 20.0818 15.822 20.917 15.822C23.318 15.822 25.5814 15.0154 27.2901 13.5507C29.0376 12.053 30 10.05 30 7.91098C30 5.77195 29.0376 3.7691 27.2901 2.27121ZM20.917 14.064C16.878 14.064 13.592 11.3037 13.592 7.91098C13.592 4.51822 16.878 1.75799 20.917 1.75799C24.9559 1.75799 28.2419 4.51822 28.2419 7.91098C28.242 11.3037 24.9559 14.064 20.917 14.064Z" fill="url(#paint3_linear)"/>
<path d="M27.2901 2.27121C25.5814 0.806602 23.318 0 20.917 0C18.516 0 16.2525 0.806602 14.5438 2.27121C12.7964 3.76904 11.834 5.77195 11.834 7.91098C11.834 10.05 12.7964 12.0529 14.5438 13.5507C14.857 13.8191 15.1889 14.0653 15.5368 14.2885C14.8945 15.2563 14.1436 16.1458 13.299 16.9371C15.1412 16.7848 16.8879 16.2966 18.4789 15.5351C19.2633 15.724 20.0818 15.822 20.917 15.822C23.318 15.822 25.5814 15.0154 27.2901 13.5507C29.0376 12.053 30 10.05 30 7.91098C30 5.77195 29.0376 3.7691 27.2901 2.27121ZM20.917 14.064C16.878 14.064 13.592 11.3037 13.592 7.91098C13.592 4.51822 16.878 1.75799 20.917 1.75799C24.9559 1.75799 28.2419 4.51822 28.2419 7.91098C28.242 11.3037 24.9559 14.064 20.917 14.064Z" fill="url(#paint4_linear)"/>
<path d="M27.2901 2.27121C25.5814 0.806602 23.318 0 20.917 0C18.516 0 16.2525 0.806602 14.5438 2.27121C12.7964 3.76904 11.834 5.77195 11.834 7.91098C11.834 10.05 12.7964 12.0529 14.5438 13.5507C14.857 13.8191 15.1889 14.0653 15.5368 14.2885C14.8945 15.2563 14.1436 16.1458 13.299 16.9371C15.1412 16.7848 16.8879 16.2966 18.4789 15.5351C19.2633 15.724 20.0818 15.822 20.917 15.822C23.318 15.822 25.5814 15.0154 27.2901 13.5507C29.0376 12.053 30 10.05 30 7.91098C30 5.77195 29.0376 3.7691 27.2901 2.27121ZM20.917 14.064C16.878 14.064 13.592 11.3037 13.592 7.91098C13.592 4.51822 16.878 1.75799 20.917 1.75799C24.9559 1.75799 28.2419 4.51822 28.2419 7.91098C28.242 11.3037 24.9559 14.064 20.917 14.064Z" fill="url(#paint5_linear)"/>
<path d="M20.9172 9.083C21.5645 9.083 22.0892 8.55828 22.0892 7.91101C22.0892 7.26373 21.5645 6.73901 20.9172 6.73901C20.27 6.73901 19.7452 7.26373 19.7452 7.91101C19.7452 8.55828 20.27 9.083 20.9172 9.083Z" fill="url(#paint6_linear)"/>
<path d="M20.9172 9.083C21.5645 9.083 22.0892 8.55828 22.0892 7.91101C22.0892 7.26373 21.5645 6.73901 20.9172 6.73901C20.27 6.73901 19.7452 7.26373 19.7452 7.91101C19.7452 8.55828 20.27 9.083 20.9172 9.083Z" fill="url(#paint7_linear)"/>
<path d="M20.9172 9.083C21.5645 9.083 22.0892 8.55828 22.0892 7.91101C22.0892 7.26373 21.5645 6.73901 20.9172 6.73901C20.27 6.73901 19.7452 7.26373 19.7452 7.91101C19.7452 8.55828 20.27 9.083 20.9172 9.083Z" fill="url(#paint8_linear)"/>
<path d="M16.8152 9.083C17.4625 9.083 17.9872 8.55828 17.9872 7.91101C17.9872 7.26373 17.4625 6.73901 16.8152 6.73901C16.168 6.73901 15.6432 7.26373 15.6432 7.91101C15.6432 8.55828 16.168 9.083 16.8152 9.083Z" fill="url(#paint9_linear)"/>
<path d="M16.8152 9.083C17.4625 9.083 17.9872 8.55828 17.9872 7.91101C17.9872 7.26373 17.4625 6.73901 16.8152 6.73901C16.168 6.73901 15.6432 7.26373 15.6432 7.91101C15.6432 8.55828 16.168 9.083 16.8152 9.083Z" fill="url(#paint10_linear)"/>
<path d="M16.8152 9.083C17.4625 9.083 17.9872 8.55828 17.9872 7.91101C17.9872 7.26373 17.4625 6.73901 16.8152 6.73901C16.168 6.73901 15.6432 7.26373 15.6432 7.91101C15.6432 8.55828 16.168 9.083 16.8152 9.083Z" fill="url(#paint11_linear)"/>
<path d="M25.0192 9.083C25.6665 9.083 26.1912 8.55828 26.1912 7.91101C26.1912 7.26373 25.6665 6.73901 25.0192 6.73901C24.3719 6.73901 23.8472 7.26373 23.8472 7.91101C23.8472 8.55828 24.3719 9.083 25.0192 9.083Z" fill="url(#paint12_linear)"/>
<path d="M25.0192 9.083C25.6665 9.083 26.1912 8.55828 26.1912 7.91101C26.1912 7.26373 25.6665 6.73901 25.0192 6.73901C24.3719 6.73901 23.8472 7.26373 23.8472 7.91101C23.8472 8.55828 24.3719 9.083 25.0192 9.083Z" fill="url(#paint13_linear)"/>
<path d="M25.0192 9.083C25.6665 9.083 26.1912 8.55828 26.1912 7.91101C26.1912 7.26373 25.6665 6.73901 25.0192 6.73901C24.3719 6.73901 23.8472 7.26373 23.8472 7.91101C23.8472 8.55828 24.3719 9.083 25.0192 9.083Z" fill="url(#paint14_linear)"/>
</g>
<defs>
<linearGradient id="paint0_linear" x1="10.8394" y1="8.32208" x2="10.8394" y2="29.9999" gradientUnits="userSpaceOnUse">
<stop stop-color="#5DB3FD"/>
<stop offset="1" stop-color="#0089FF"/>
</linearGradient>
<linearGradient id="paint1_linear" x1="10.8394" y1="8.32208" x2="10.8394" y2="29.9999" gradientUnits="userSpaceOnUse">
<stop offset="0.0454856" stop-color="#5FC5FF" stop-opacity="0.5"/>
<stop offset="0.121476" stop-color="white" stop-opacity="0"/>
</linearGradient>
<linearGradient id="paint2_linear" x1="10.8394" y1="8.32208" x2="10.8394" y2="29.9999" gradientUnits="userSpaceOnUse">
<stop offset="0.913618" stop-color="white" stop-opacity="0"/>
<stop offset="0.974216" stop-color="#132A63" stop-opacity="0.35"/>
</linearGradient>
<linearGradient id="paint3_linear" x1="20.917" y1="0" x2="20.917" y2="16.9371" gradientUnits="userSpaceOnUse">
<stop stop-color="#5DB3FD"/>
<stop offset="1" stop-color="#0089FF"/>
</linearGradient>
<linearGradient id="paint4_linear" x1="20.917" y1="0" x2="20.917" y2="16.9371" gradientUnits="userSpaceOnUse">
<stop offset="0.0454856" stop-color="#5FC5FF" stop-opacity="0.5"/>
<stop offset="0.121476" stop-color="white" stop-opacity="0"/>
</linearGradient>
<linearGradient id="paint5_linear" x1="20.917" y1="0" x2="20.917" y2="16.9371" gradientUnits="userSpaceOnUse">
<stop offset="0.913618" stop-color="white" stop-opacity="0"/>
<stop offset="0.974216" stop-color="#132A63" stop-opacity="0.35"/>
</linearGradient>
<linearGradient id="paint6_linear" x1="20.9172" y1="6.73901" x2="20.9172" y2="9.083" gradientUnits="userSpaceOnUse">
<stop stop-color="#5DB3FD"/>
<stop offset="1" stop-color="#0089FF"/>
</linearGradient>
<linearGradient id="paint7_linear" x1="20.9172" y1="6.73901" x2="20.9172" y2="9.083" gradientUnits="userSpaceOnUse">
<stop offset="0.0454856" stop-color="#5FC5FF" stop-opacity="0.5"/>
<stop offset="0.121476" stop-color="white" stop-opacity="0"/>
</linearGradient>
<linearGradient id="paint8_linear" x1="20.9172" y1="6.73901" x2="20.9172" y2="9.083" gradientUnits="userSpaceOnUse">
<stop offset="0.913618" stop-color="white" stop-opacity="0"/>
<stop offset="0.974216" stop-color="#132A63" stop-opacity="0.35"/>
</linearGradient>
<linearGradient id="paint9_linear" x1="16.8152" y1="6.73901" x2="16.8152" y2="9.083" gradientUnits="userSpaceOnUse">
<stop stop-color="#5DB3FD"/>
<stop offset="1" stop-color="#0089FF"/>
</linearGradient>
<linearGradient id="paint10_linear" x1="16.8152" y1="6.73901" x2="16.8152" y2="9.083" gradientUnits="userSpaceOnUse">
<stop offset="0.0454856" stop-color="#5FC5FF" stop-opacity="0.5"/>
<stop offset="0.121476" stop-color="white" stop-opacity="0"/>
</linearGradient>
<linearGradient id="paint11_linear" x1="16.8152" y1="6.73901" x2="16.8152" y2="9.083" gradientUnits="userSpaceOnUse">
<stop offset="0.913618" stop-color="white" stop-opacity="0"/>
<stop offset="0.974216" stop-color="#132A63" stop-opacity="0.35"/>
</linearGradient>
<linearGradient id="paint12_linear" x1="25.0192" y1="6.73901" x2="25.0192" y2="9.083" gradientUnits="userSpaceOnUse">
<stop stop-color="#5DB3FD"/>
<stop offset="1" stop-color="#0089FF"/>
</linearGradient>
<linearGradient id="paint13_linear" x1="25.0192" y1="6.73901" x2="25.0192" y2="9.083" gradientUnits="userSpaceOnUse">
<stop offset="0.0454856" stop-color="#5FC5FF" stop-opacity="0.5"/>
<stop offset="0.121476" stop-color="white" stop-opacity="0"/>
</linearGradient>
<linearGradient id="paint14_linear" x1="25.0192" y1="6.73901" x2="25.0192" y2="9.083" gradientUnits="userSpaceOnUse">
<stop offset="0.913618" stop-color="white" stop-opacity="0"/>
<stop offset="0.974216" stop-color="#132A63" stop-opacity="0.35"/>
</linearGradient>
<clipPath id="clip0">
<rect width="30" height="30" fill="white"/>
</clipPath>
</defs>
</svg>
