<svg width="90" height="90" viewBox="0 0 90 90" fill="none" xmlns="http://www.w3.org/2000/svg">
<path d="M87.302 68.1952C88.756 68.1952 89.9349 67.0164 89.9349 65.5623V54.6598C89.9349 53.2058 88.756 52.0269 87.302 52.0269H83.337V43.7573C83.337 42.3033 82.1582 41.1245 80.7041 41.1245H48.2343C46.7803 41.1245 45.6014 42.3033 45.6014 43.7573V54.6598C45.6014 56.1139 46.7803 57.2927 48.2343 57.2927H52.1993V62.9294H51.338C49.8839 62.9294 48.7051 64.1082 48.7051 65.5623V76.4646C48.7051 77.9187 49.8839 79.0975 51.338 79.0975H52.1993V87.3671C52.1993 88.8211 53.3781 90 54.8322 90H87.3018C88.7559 90 89.9347 88.8211 89.9347 87.3671V76.4646C89.9347 75.0105 88.7559 73.8317 87.3018 73.8317H86.4403V68.1952H87.302ZM50.8672 46.3902H78.071V52.0269H50.8672V46.3902ZM57.4651 57.2927H84.6689V62.9294H57.4651V57.2927ZM84.6691 84.7342H57.4651V79.0975H83.8074H84.6689V84.7342H84.6691ZM81.1745 73.8317H53.9709V68.1952H81.1745V73.8317Z" fill="white"/>
<path d="M38.662 62.9294H6.19238C4.73832 62.9294 3.55948 64.1082 3.55948 65.5623V73.8317H2.69818C1.24411 73.8317 0.0652771 75.0106 0.0652771 76.4646V87.3671C0.0652771 88.8212 1.24411 90 2.69818 90H35.1678C36.6218 90 37.8007 88.8212 37.8007 87.3671V79.0975H38.6622C40.1162 79.0975 41.2951 77.9187 41.2951 76.4646V65.5623C41.2949 64.1082 40.1161 62.9294 38.662 62.9294ZM8.82528 68.1952H36.0291V73.8317H8.82528V68.1952ZM32.5347 84.7342H5.33107V79.0975H32.5349V84.7342H32.5347Z" fill="white"/>
<path d="M75.2154 19.3606C74.1836 18.3359 72.517 18.3411 71.4918 19.3727L70.2057 20.6672V2.6329C70.2057 1.17884 69.0268 0 67.5728 0H18.9328C17.4787 0 16.2999 1.17884 16.2999 2.6329V42.4699L15.0136 41.1752C13.9889 40.1436 12.3218 40.1382 11.2902 41.1631C10.2586 42.1878 10.2532 43.855 11.2781 44.8865L17.065 50.7114C17.5593 51.2088 18.2316 51.4886 18.9328 51.4886C19.634 51.4886 20.3063 51.2088 20.8006 50.7114L26.5875 44.8865C27.6124 43.855 27.607 42.1878 26.5754 41.1631C25.5438 40.1382 23.8767 40.1436 22.8519 41.1752L21.5657 42.4699V5.2658H64.9399V20.6674L63.6538 19.3729C62.6287 18.3413 60.9617 18.3359 59.9302 19.3608C58.8986 20.3857 58.8933 22.0526 59.9181 23.0842L65.705 28.909C66.1993 29.4065 66.8715 29.6863 67.5729 29.6863C68.2744 29.6863 68.9464 29.4065 69.4409 28.909L75.2278 23.0842C76.2522 22.0525 76.2469 20.3855 75.2154 19.3606Z" fill="#3FDB90"/>
</svg>
