<svg width="96" height="86" viewBox="0 0 96 86" fill="none" xmlns="http://www.w3.org/2000/svg">
<path d="M84.174 59.4504C82.7979 58.7292 81.0982 59.2606 80.3777 60.6367C74.1545 72.5169 61.9646 79.897 48.5653 79.897C28.8005 79.897 12.7172 63.8366 12.6785 44.0806L14.9355 46.3376C15.4847 46.8867 16.2045 47.1614 16.9241 47.1614C17.6437 47.1614 18.3637 46.8869 18.9127 46.3376C20.0111 45.2392 20.0111 43.4585 18.9127 42.3601L11.8569 35.3045C10.7587 34.2061 8.97785 34.2061 7.87947 35.3045L0.823659 42.3601C-0.274716 43.4583 -0.274716 45.2392 0.823659 46.3376C1.92185 47.4359 3.70272 47.4357 4.8011 46.3376L7.05335 44.0855C7.07303 55.1454 11.3885 65.5406 19.2112 73.3632C27.0519 81.2039 37.4767 85.522 48.5653 85.522C64.064 85.522 78.1629 76.9867 85.3603 63.2469C86.0812 61.8708 85.55 60.1711 84.174 59.4504Z" fill="url(#paint0_linear)"/>
<path d="M84.174 59.4504C82.7979 58.7292 81.0982 59.2606 80.3777 60.6367C74.1545 72.5169 61.9646 79.897 48.5653 79.897C28.8005 79.897 12.7172 63.8366 12.6785 44.0806L14.9355 46.3376C15.4847 46.8867 16.2045 47.1614 16.9241 47.1614C17.6437 47.1614 18.3637 46.8869 18.9127 46.3376C20.0111 45.2392 20.0111 43.4585 18.9127 42.3601L11.8569 35.3045C10.7587 34.2061 8.97785 34.2061 7.87947 35.3045L0.823659 42.3601C-0.274716 43.4583 -0.274716 45.2392 0.823659 46.3376C1.92185 47.4359 3.70272 47.4357 4.8011 46.3376L7.05335 44.0855C7.07303 55.1454 11.3885 65.5406 19.2112 73.3632C27.0519 81.2039 37.4767 85.522 48.5653 85.522C64.064 85.522 78.1629 76.9867 85.3603 63.2469C86.0812 61.8708 85.55 60.1711 84.174 59.4504Z" fill="url(#paint1_linear)"/>
<path d="M84.174 59.4504C82.7979 58.7292 81.0982 59.2606 80.3777 60.6367C74.1545 72.5169 61.9646 79.897 48.5653 79.897C28.8005 79.897 12.7172 63.8366 12.6785 44.0806L14.9355 46.3376C15.4847 46.8867 16.2045 47.1614 16.9241 47.1614C17.6437 47.1614 18.3637 46.8869 18.9127 46.3376C20.0111 45.2392 20.0111 43.4585 18.9127 42.3601L11.8569 35.3045C10.7587 34.2061 8.97785 34.2061 7.87947 35.3045L0.823659 42.3601C-0.274716 43.4583 -0.274716 45.2392 0.823659 46.3376C1.92185 47.4359 3.70272 47.4357 4.8011 46.3376L7.05335 44.0855C7.07303 55.1454 11.3885 65.5406 19.2112 73.3632C27.0519 81.2039 37.4767 85.522 48.5653 85.522C64.064 85.522 78.1629 76.9867 85.3603 63.2469C86.0812 61.8708 85.55 60.1711 84.174 59.4504Z" fill="url(#paint2_linear)"/>
<path d="M95.1763 39.2945C94.0781 38.1961 92.2972 38.1961 91.1988 39.2945L88.9464 41.5467C88.9267 30.4867 84.6114 20.0917 76.7885 12.2688C68.948 4.42811 58.5232 0.109985 47.4347 0.109985C31.9359 0.109985 17.837 8.64536 10.6397 22.3852C9.91873 23.7611 10.4499 25.4609 11.826 26.1817C13.2015 26.9024 14.9014 26.3712 15.6223 24.9954C21.8454 13.1152 34.0353 5.73499 47.4347 5.73499C67.199 5.73499 83.2824 21.7955 83.3214 41.5511L81.0647 39.2943C79.9665 38.1959 78.1856 38.1959 77.0872 39.2943C75.9888 40.3927 75.9888 42.1734 77.0872 43.2717L84.143 50.3276C84.6922 50.8768 85.412 51.1514 86.1317 51.1514C86.8513 51.1514 87.5713 50.8769 88.1203 50.3276L95.1761 43.2717C96.2747 42.1734 96.2747 40.3927 95.1763 39.2945V39.2945Z" fill="url(#paint3_linear)"/>
<path d="M95.1763 39.2945C94.0781 38.1961 92.2972 38.1961 91.1988 39.2945L88.9464 41.5467C88.9267 30.4867 84.6114 20.0917 76.7885 12.2688C68.948 4.42811 58.5232 0.109985 47.4347 0.109985C31.9359 0.109985 17.837 8.64536 10.6397 22.3852C9.91873 23.7611 10.4499 25.4609 11.826 26.1817C13.2015 26.9024 14.9014 26.3712 15.6223 24.9954C21.8454 13.1152 34.0353 5.73499 47.4347 5.73499C67.199 5.73499 83.2824 21.7955 83.3214 41.5511L81.0647 39.2943C79.9665 38.1959 78.1856 38.1959 77.0872 39.2943C75.9888 40.3927 75.9888 42.1734 77.0872 43.2717L84.143 50.3276C84.6922 50.8768 85.412 51.1514 86.1317 51.1514C86.8513 51.1514 87.5713 50.8769 88.1203 50.3276L95.1761 43.2717C96.2747 42.1734 96.2747 40.3927 95.1763 39.2945V39.2945Z" fill="url(#paint4_linear)"/>
<path d="M95.1763 39.2945C94.0781 38.1961 92.2972 38.1961 91.1988 39.2945L88.9464 41.5467C88.9267 30.4867 84.6114 20.0917 76.7885 12.2688C68.948 4.42811 58.5232 0.109985 47.4347 0.109985C31.9359 0.109985 17.837 8.64536 10.6397 22.3852C9.91873 23.7611 10.4499 25.4609 11.826 26.1817C13.2015 26.9024 14.9014 26.3712 15.6223 24.9954C21.8454 13.1152 34.0353 5.73499 47.4347 5.73499C67.199 5.73499 83.2824 21.7955 83.3214 41.5511L81.0647 39.2943C79.9665 38.1959 78.1856 38.1959 77.0872 39.2943C75.9888 40.3927 75.9888 42.1734 77.0872 43.2717L84.143 50.3276C84.6922 50.8768 85.412 51.1514 86.1317 51.1514C86.8513 51.1514 87.5713 50.8769 88.1203 50.3276L95.1761 43.2717C96.2747 42.1734 96.2747 40.3927 95.1763 39.2945V39.2945Z" fill="url(#paint5_linear)"/>
<path d="M51.8451 39.5863C49.3007 38.6869 46.4869 37.6007 44.9089 36.363C44.4128 35.9741 44.1984 35.0835 44.3749 34.1469C44.4628 33.6797 44.8742 32.118 46.4717 31.6367C49.0943 30.8469 50.8931 31.8945 51.5447 32.3816C52.7889 33.3114 54.5511 33.057 55.4812 31.8129C56.4114 30.5689 56.1568 28.8064 54.9128 27.8762C54.3225 27.4348 52.8437 26.4673 50.7238 25.9974V24.8525C50.7238 23.2993 49.4646 22.04 47.9113 22.04C46.3581 22.04 45.0988 23.2993 45.0988 24.8525V26.1806C45.0156 26.2039 44.9331 26.2252 44.8493 26.2505C41.769 27.1785 39.4691 29.805 38.8472 33.105C38.2748 36.1425 39.2672 39.0868 41.4373 40.7889C43.2253 42.1912 45.6975 43.3792 49.9704 44.8897C52.8152 45.8953 52.7535 48.1978 52.5949 49.1409C52.2735 51.0532 50.6648 53.1199 47.8926 53.1384C45.174 53.1575 44.3269 53.022 42.2385 51.6559C40.9388 50.8054 39.1956 51.1697 38.3451 52.4696C37.4948 53.7695 37.8591 55.5125 39.159 56.3629C41.4114 57.8364 43.0734 58.4342 45.0988 58.6522V59.9377C45.0988 61.491 46.3581 62.7502 47.9113 62.7502C49.4646 62.7502 50.7238 61.491 50.7238 59.9377V58.382C52.2733 57.9555 53.6854 57.1762 54.8921 56.0674C56.6023 54.4961 57.7564 52.3674 58.1421 50.0734C58.9264 45.4095 56.3957 41.1949 51.8451 39.5863V39.5863Z" fill="white"/>
<defs>
<linearGradient id="paint0_linear" x1="42.841" y1="34.4807" x2="42.841" y2="85.522" gradientUnits="userSpaceOnUse">
<stop stop-color="#5DB3FD"/>
<stop offset="1" stop-color="#0089FF"/>
</linearGradient>
<linearGradient id="paint1_linear" x1="42.841" y1="34.4807" x2="42.841" y2="85.522" gradientUnits="userSpaceOnUse">
<stop offset="0.0454856" stop-color="#5FC5FF" stop-opacity="0.5"/>
<stop offset="0.121476" stop-color="white" stop-opacity="0"/>
</linearGradient>
<linearGradient id="paint2_linear" x1="42.841" y1="34.4807" x2="42.841" y2="85.522" gradientUnits="userSpaceOnUse">
<stop offset="0.913618" stop-color="white" stop-opacity="0"/>
<stop offset="0.974216" stop-color="#132A63" stop-opacity="0.35"/>
</linearGradient>
<linearGradient id="paint3_linear" x1="53.159" y1="0.109985" x2="53.159" y2="51.1514" gradientUnits="userSpaceOnUse">
<stop stop-color="#5DB3FD"/>
<stop offset="1" stop-color="#0089FF"/>
</linearGradient>
<linearGradient id="paint4_linear" x1="53.159" y1="0.109985" x2="53.159" y2="51.1514" gradientUnits="userSpaceOnUse">
<stop offset="0.0454856" stop-color="#5FC5FF" stop-opacity="0.5"/>
<stop offset="0.121476" stop-color="white" stop-opacity="0"/>
</linearGradient>
<linearGradient id="paint5_linear" x1="53.159" y1="0.109985" x2="53.159" y2="51.1514" gradientUnits="userSpaceOnUse">
<stop offset="0.913618" stop-color="white" stop-opacity="0"/>
<stop offset="0.974216" stop-color="#132A63" stop-opacity="0.35"/>
</linearGradient>
</defs>
</svg>
