<svg width="93" height="93" viewBox="0 0 93 93" fill="none" xmlns="http://www.w3.org/2000/svg">
<path d="M59.2946 68.8807C63.6219 63.6899 66.4204 57.1766 66.9886 50.0422H72.3015C73.8019 50.0422 75.0183 48.8324 75.0183 47.3401C75.0183 45.8479 73.8019 44.6381 72.3015 44.6381H66.9886C66.4103 37.3792 63.5234 30.7634 59.0666 25.5293L62.6692 21.9286C63.7277 20.8708 63.7234 19.1599 62.6598 18.1072C61.5963 17.0546 59.8762 17.0588 58.8178 18.1165L55.2347 21.6976C49.3822 16.7144 41.8101 13.7029 33.5485 13.7029C15.0497 13.7031 0 28.7926 0 47.3401C0 65.8877 15.0497 80.9772 33.5485 80.9772C41.9371 80.9772 49.6164 77.8742 55.5047 72.753L59.1224 76.2934C59.6514 76.8113 60.3397 77.0696 61.0278 77.0696C61.7303 77.0696 62.4327 76.8001 62.9645 76.2627C64.017 75.1992 64.003 73.4885 62.9335 72.4417L59.2946 68.8807ZM33.5485 75.5734C18.0458 75.5734 5.43358 62.9079 5.43358 47.3401C5.43358 31.7724 18.0458 19.1071 33.5485 19.1071C49.0513 19.1071 61.6635 31.7725 61.6635 47.3401C61.6635 62.9077 49.0513 75.5734 33.5485 75.5734Z" fill="url(#paint0_linear)"/>
<path d="M89.5463 47.3401L92.1075 44.7928C93.1685 43.7377 93.1685 42.0268 92.1075 40.9716C91.0467 39.9165 89.3264 39.9165 88.2654 40.9716L85.7044 43.5189L83.1433 40.9716C82.0823 39.9164 80.3622 39.9164 79.3012 40.9716C78.2402 42.0266 78.2402 43.7376 79.3012 44.7928L81.8625 47.3401L79.3012 49.8874C78.2402 50.9424 78.2402 52.6533 79.3012 53.7086C79.8317 54.2362 80.5271 54.5001 81.2222 54.5001C81.9173 54.5001 82.6128 54.2362 83.1432 53.7086L85.7042 51.1613L88.2652 53.7086C88.7957 54.2364 89.4909 54.5001 90.1862 54.5001C90.8813 54.5001 91.5768 54.2362 92.1071 53.7086C93.1681 52.6535 93.1681 50.9426 92.1071 49.8874L89.5463 47.3401Z" fill="white"/>
<path d="M66.2569 14.4606C66.7874 14.9884 67.4825 15.2522 68.1778 15.2522C68.873 15.2522 69.5685 14.9883 70.0988 14.4606L72.6598 11.9135L75.2208 14.4606C75.7513 14.9883 76.4466 15.2522 77.1418 15.2522C77.8369 15.2522 78.5324 14.9883 79.0627 14.4606C80.1237 13.4056 80.1237 11.6947 79.0627 10.6394L76.5017 8.09234L79.0627 5.54524C80.1237 4.49019 80.1237 2.77927 79.0627 1.72404C78.0017 0.66863 76.2816 0.66899 75.2206 1.72404L72.6596 4.27114L70.0986 1.72404C69.0378 0.66899 67.3175 0.66899 66.2565 1.72404C65.1955 2.77909 65.1955 4.49001 66.2565 5.54524L68.8175 8.09234L66.2565 10.6394C65.1959 11.6945 65.1959 13.4056 66.2569 14.4606V14.4606Z" fill="white"/>
<path d="M79.0633 79.319C78.0025 78.264 76.2822 78.264 75.2212 79.319L72.6602 81.8663L70.0991 79.319C69.0383 78.2638 67.3182 78.2638 66.2571 79.319C65.1961 80.3741 65.1961 82.085 66.2571 83.1402L68.8183 85.6875L66.2571 88.2348C65.1961 89.2898 65.1961 91.0007 66.2571 92.056C66.7876 92.5836 67.4829 92.8475 68.178 92.8475C68.8731 92.8475 69.5686 92.5836 70.099 92.056L72.66 89.5087L75.221 92.056C75.7515 92.5838 76.4466 92.8475 77.142 92.8475C77.8371 92.8475 78.5326 92.5836 79.0629 92.056C80.1239 91.0009 80.1239 89.29 79.0629 88.2348L76.5017 85.6875L79.0629 83.1402C80.1243 82.085 80.1243 80.3741 79.0633 79.319V79.319Z" fill="white"/>
<path d="M36.8768 44.6416C34.419 43.7777 31.7011 42.734 30.1767 41.5449C29.6976 41.1713 29.4904 40.3157 29.6608 39.4159C29.746 38.9672 30.1433 37.4667 31.6865 37.0043C34.2196 36.245 35.9571 37.2518 36.5863 37.7198C37.7878 38.6134 39.4905 38.369 40.3891 37.174C41.2876 35.9789 41.0418 34.2857 39.8403 33.392C39.2699 32.968 37.8416 32.0381 35.7937 31.5867V30.4872C35.7937 28.9949 34.5773 27.7852 33.0769 27.7852C31.5765 27.7852 30.3601 28.9949 30.3601 30.4872V31.7631C30.2799 31.7854 30.2002 31.8059 30.1191 31.8303C27.1435 32.7217 24.9218 35.2451 24.3211 38.4156C23.7681 41.3338 24.727 44.1623 26.823 45.7974C28.5502 47.1446 30.9383 48.2861 35.0656 49.7371C37.8135 50.7032 37.7541 52.9152 37.6009 53.8213C37.2903 55.6585 35.7365 57.6439 33.0584 57.6616C30.4337 57.68 29.6141 57.5499 27.5968 56.2373C26.3411 55.4202 24.6572 55.7702 23.8359 57.0192C23.0145 58.2681 23.3664 59.9426 24.6221 60.7597C26.7981 62.1754 28.4035 62.7497 30.3598 62.959V64.194C30.3598 65.6862 31.5762 66.896 33.0766 66.896C34.5769 66.896 35.7933 65.6862 35.7933 64.194V62.6994C37.2901 62.2896 38.6541 61.541 39.8198 60.4756C41.4718 58.9661 42.5866 56.921 42.9591 54.7171C43.7171 50.2359 41.2726 46.187 36.8768 44.6416V44.6416Z" fill="white"/>
<defs>
<linearGradient id="paint0_linear" x1="37.5092" y1="13.7029" x2="37.5092" y2="80.9772" gradientUnits="userSpaceOnUse">
<stop stop-color="#5DB3FD"/>
<stop offset="1" stop-color="#0089FF"/>
</linearGradient>
</defs>
</svg>
