<svg width="96" height="97" viewBox="0 0 96 97" fill="none" xmlns="http://www.w3.org/2000/svg">
<path d="M96 21.4834C96 19.9301 94.7408 18.6709 93.1875 18.6709H85.4632C76.2937 7.2379 62.6421 0.681396 48 0.681396C35.1787 0.681396 23.1249 5.67433 14.0588 14.7401C4.99294 23.8063 0 35.8601 0 48.6814C0 61.5026 4.99294 73.5565 14.0588 82.6226C23.1249 91.6885 35.1787 96.6814 48 96.6814C60.8213 96.6814 72.8751 91.6885 81.9412 82.6226C91.0071 73.5565 96 61.5026 96 48.6814C96 48.5539 96 21.4834 96 21.4834ZM90.375 45.8689H84.0658V24.2959H90.375V45.8689ZM66.5063 45.8689H60.1971V35.5459H66.5063V45.8689ZM78.4408 45.8689H72.1313V29.9209H78.4406V45.8689H78.4408ZM79.0048 19.7989C78.6521 20.2688 78.4408 20.8506 78.4408 21.4834V24.2959H69.3188C67.7655 24.2959 66.5063 25.5551 66.5063 27.1084V29.9209H57.3846C55.8313 29.9209 54.5721 31.1801 54.5721 32.7334V45.8689H50.8125V6.40183C61.6153 7.1089 71.6319 11.8723 79.0048 19.7989ZM18.0364 18.7178C25.3733 11.3807 34.9273 7.0684 45.1875 6.40052V29.1671C45.0889 29.2438 38.391 36.0501 38.391 36.0501C38.3276 36.1146 38.25 36.1663 38.166 36.2001L32.0027 38.6651H23.6046C21.5263 38.6651 19.5851 39.6893 18.4121 41.4047C17.2389 43.12 16.9886 45.3004 17.7424 47.2371L21.432 56.7165C22.0826 58.3879 23.4197 59.7051 25.1003 60.3304L33.9137 63.6098C34.1443 63.6958 34.2519 63.8646 34.3014 63.9913C34.3509 64.1177 34.3866 64.3148 34.2754 64.5343L30.9259 71.1521C30.8128 71.3753 30.6298 71.4626 30.4959 71.4966C30.3624 71.5311 30.1594 71.5414 29.9535 71.3989L25.0689 68.0205C23.9196 67.2253 22.5176 66.8323 21.1232 66.9141L10.0416 67.5623C7.1535 61.7695 5.625 55.3433 5.625 48.6814C5.625 37.3626 10.0328 26.7214 18.0364 18.7178ZM18.0364 78.645C16.2774 76.8863 14.6927 74.9998 13.2898 73.0071L21.4513 72.5297C21.5994 72.5222 21.7474 72.5627 21.8691 72.6469L26.7536 76.0253C27.8154 76.7599 29.0653 77.1426 30.3319 77.1426C30.849 77.1426 31.3687 77.0786 31.8797 76.9491C33.642 76.5017 35.1238 75.3148 35.9449 73.6926L39.2944 67.0748C40.1021 65.4788 40.1916 63.6079 39.5398 61.942C38.8877 60.2758 37.5521 58.9624 35.8755 58.3384L27.0619 55.0588C26.8841 54.9926 26.7428 54.8533 26.6739 54.6767L22.9843 45.1973C22.8789 44.9269 22.9648 44.7124 23.0552 44.5802C23.1456 44.448 23.3145 44.2903 23.6047 44.2903H32.5455C32.9181 44.2903 33.2841 44.2159 33.6225 44.0756L40.2546 41.4231C41.0676 41.0981 41.7909 40.6163 42.4052 39.9908L45.1875 37.1561V48.6814C45.1875 50.2346 46.4468 51.4939 48 51.4939H90.2809C90.0195 55.5081 89.2014 59.4139 87.861 63.1213L81.1659 59.3646C78.5998 57.9251 75.4629 57.778 72.7736 58.971L61.9522 63.7718C61.0451 64.1743 60.0337 64.2032 59.1045 63.8524C56.3091 62.797 53.2622 63.114 50.7441 64.7224C48.2259 66.3306 46.6567 68.9618 46.4387 71.9415L46.2617 74.3597C46.1164 76.3461 46.6217 78.3671 47.6848 80.0511L54.3371 90.588C52.2578 90.8981 50.1411 91.0564 48 91.0564C36.6812 91.0564 26.04 86.6486 18.0364 78.645ZM77.9636 78.645C72.9174 83.6914 66.8222 87.3064 60.1701 89.2903L52.4413 77.0485C52.0159 76.3746 51.8136 75.5657 51.8719 74.7709L52.0489 72.3525C52.1362 71.16 52.764 70.1068 53.7718 69.4633C54.7794 68.8196 55.9986 68.6927 57.1179 69.1155C59.4392 69.9913 61.9659 69.9201 64.2334 68.914L75.0547 64.1132C76.131 63.6356 77.3869 63.6949 78.4134 64.2707L85.5834 68.2939C83.6113 72.0621 81.0574 75.5513 77.9636 78.645Z" fill="url(#paint0_linear)"/>
<path d="M96 21.4834C96 19.9301 94.7408 18.6709 93.1875 18.6709H85.4632C76.2937 7.2379 62.6421 0.681396 48 0.681396C35.1787 0.681396 23.1249 5.67433 14.0588 14.7401C4.99294 23.8063 0 35.8601 0 48.6814C0 61.5026 4.99294 73.5565 14.0588 82.6226C23.1249 91.6885 35.1787 96.6814 48 96.6814C60.8213 96.6814 72.8751 91.6885 81.9412 82.6226C91.0071 73.5565 96 61.5026 96 48.6814C96 48.5539 96 21.4834 96 21.4834ZM90.375 45.8689H84.0658V24.2959H90.375V45.8689ZM66.5063 45.8689H60.1971V35.5459H66.5063V45.8689ZM78.4408 45.8689H72.1313V29.9209H78.4406V45.8689H78.4408ZM79.0048 19.7989C78.6521 20.2688 78.4408 20.8506 78.4408 21.4834V24.2959H69.3188C67.7655 24.2959 66.5063 25.5551 66.5063 27.1084V29.9209H57.3846C55.8313 29.9209 54.5721 31.1801 54.5721 32.7334V45.8689H50.8125V6.40183C61.6153 7.1089 71.6319 11.8723 79.0048 19.7989ZM18.0364 18.7178C25.3733 11.3807 34.9273 7.0684 45.1875 6.40052V29.1671C45.0889 29.2438 38.391 36.0501 38.391 36.0501C38.3276 36.1146 38.25 36.1663 38.166 36.2001L32.0027 38.6651H23.6046C21.5263 38.6651 19.5851 39.6893 18.4121 41.4047C17.2389 43.12 16.9886 45.3004 17.7424 47.2371L21.432 56.7165C22.0826 58.3879 23.4197 59.7051 25.1003 60.3304L33.9137 63.6098C34.1443 63.6958 34.2519 63.8646 34.3014 63.9913C34.3509 64.1177 34.3866 64.3148 34.2754 64.5343L30.9259 71.1521C30.8128 71.3753 30.6298 71.4626 30.4959 71.4966C30.3624 71.5311 30.1594 71.5414 29.9535 71.3989L25.0689 68.0205C23.9196 67.2253 22.5176 66.8323 21.1232 66.9141L10.0416 67.5623C7.1535 61.7695 5.625 55.3433 5.625 48.6814C5.625 37.3626 10.0328 26.7214 18.0364 18.7178ZM18.0364 78.645C16.2774 76.8863 14.6927 74.9998 13.2898 73.0071L21.4513 72.5297C21.5994 72.5222 21.7474 72.5627 21.8691 72.6469L26.7536 76.0253C27.8154 76.7599 29.0653 77.1426 30.3319 77.1426C30.849 77.1426 31.3687 77.0786 31.8797 76.9491C33.642 76.5017 35.1238 75.3148 35.9449 73.6926L39.2944 67.0748C40.1021 65.4788 40.1916 63.6079 39.5398 61.942C38.8877 60.2758 37.5521 58.9624 35.8755 58.3384L27.0619 55.0588C26.8841 54.9926 26.7428 54.8533 26.6739 54.6767L22.9843 45.1973C22.8789 44.9269 22.9648 44.7124 23.0552 44.5802C23.1456 44.448 23.3145 44.2903 23.6047 44.2903H32.5455C32.9181 44.2903 33.2841 44.2159 33.6225 44.0756L40.2546 41.4231C41.0676 41.0981 41.7909 40.6163 42.4052 39.9908L45.1875 37.1561V48.6814C45.1875 50.2346 46.4468 51.4939 48 51.4939H90.2809C90.0195 55.5081 89.2014 59.4139 87.861 63.1213L81.1659 59.3646C78.5998 57.9251 75.4629 57.778 72.7736 58.971L61.9522 63.7718C61.0451 64.1743 60.0337 64.2032 59.1045 63.8524C56.3091 62.797 53.2622 63.114 50.7441 64.7224C48.2259 66.3306 46.6567 68.9618 46.4387 71.9415L46.2617 74.3597C46.1164 76.3461 46.6217 78.3671 47.6848 80.0511L54.3371 90.588C52.2578 90.8981 50.1411 91.0564 48 91.0564C36.6812 91.0564 26.04 86.6486 18.0364 78.645ZM77.9636 78.645C72.9174 83.6914 66.8222 87.3064 60.1701 89.2903L52.4413 77.0485C52.0159 76.3746 51.8136 75.5657 51.8719 74.7709L52.0489 72.3525C52.1362 71.16 52.764 70.1068 53.7718 69.4633C54.7794 68.8196 55.9986 68.6927 57.1179 69.1155C59.4392 69.9913 61.9659 69.9201 64.2334 68.914L75.0547 64.1132C76.131 63.6356 77.3869 63.6949 78.4134 64.2707L85.5834 68.2939C83.6113 72.0621 81.0574 75.5513 77.9636 78.645Z" fill="url(#paint1_linear)"/>
<path d="M96 21.4834C96 19.9301 94.7408 18.6709 93.1875 18.6709H85.4632C76.2937 7.2379 62.6421 0.681396 48 0.681396C35.1787 0.681396 23.1249 5.67433 14.0588 14.7401C4.99294 23.8063 0 35.8601 0 48.6814C0 61.5026 4.99294 73.5565 14.0588 82.6226C23.1249 91.6885 35.1787 96.6814 48 96.6814C60.8213 96.6814 72.8751 91.6885 81.9412 82.6226C91.0071 73.5565 96 61.5026 96 48.6814C96 48.5539 96 21.4834 96 21.4834ZM90.375 45.8689H84.0658V24.2959H90.375V45.8689ZM66.5063 45.8689H60.1971V35.5459H66.5063V45.8689ZM78.4408 45.8689H72.1313V29.9209H78.4406V45.8689H78.4408ZM79.0048 19.7989C78.6521 20.2688 78.4408 20.8506 78.4408 21.4834V24.2959H69.3188C67.7655 24.2959 66.5063 25.5551 66.5063 27.1084V29.9209H57.3846C55.8313 29.9209 54.5721 31.1801 54.5721 32.7334V45.8689H50.8125V6.40183C61.6153 7.1089 71.6319 11.8723 79.0048 19.7989ZM18.0364 18.7178C25.3733 11.3807 34.9273 7.0684 45.1875 6.40052V29.1671C45.0889 29.2438 38.391 36.0501 38.391 36.0501C38.3276 36.1146 38.25 36.1663 38.166 36.2001L32.0027 38.6651H23.6046C21.5263 38.6651 19.5851 39.6893 18.4121 41.4047C17.2389 43.12 16.9886 45.3004 17.7424 47.2371L21.432 56.7165C22.0826 58.3879 23.4197 59.7051 25.1003 60.3304L33.9137 63.6098C34.1443 63.6958 34.2519 63.8646 34.3014 63.9913C34.3509 64.1177 34.3866 64.3148 34.2754 64.5343L30.9259 71.1521C30.8128 71.3753 30.6298 71.4626 30.4959 71.4966C30.3624 71.5311 30.1594 71.5414 29.9535 71.3989L25.0689 68.0205C23.9196 67.2253 22.5176 66.8323 21.1232 66.9141L10.0416 67.5623C7.1535 61.7695 5.625 55.3433 5.625 48.6814C5.625 37.3626 10.0328 26.7214 18.0364 18.7178ZM18.0364 78.645C16.2774 76.8863 14.6927 74.9998 13.2898 73.0071L21.4513 72.5297C21.5994 72.5222 21.7474 72.5627 21.8691 72.6469L26.7536 76.0253C27.8154 76.7599 29.0653 77.1426 30.3319 77.1426C30.849 77.1426 31.3687 77.0786 31.8797 76.9491C33.642 76.5017 35.1238 75.3148 35.9449 73.6926L39.2944 67.0748C40.1021 65.4788 40.1916 63.6079 39.5398 61.942C38.8877 60.2758 37.5521 58.9624 35.8755 58.3384L27.0619 55.0588C26.8841 54.9926 26.7428 54.8533 26.6739 54.6767L22.9843 45.1973C22.8789 44.9269 22.9648 44.7124 23.0552 44.5802C23.1456 44.448 23.3145 44.2903 23.6047 44.2903H32.5455C32.9181 44.2903 33.2841 44.2159 33.6225 44.0756L40.2546 41.4231C41.0676 41.0981 41.7909 40.6163 42.4052 39.9908L45.1875 37.1561V48.6814C45.1875 50.2346 46.4468 51.4939 48 51.4939H90.2809C90.0195 55.5081 89.2014 59.4139 87.861 63.1213L81.1659 59.3646C78.5998 57.9251 75.4629 57.778 72.7736 58.971L61.9522 63.7718C61.0451 64.1743 60.0337 64.2032 59.1045 63.8524C56.3091 62.797 53.2622 63.114 50.7441 64.7224C48.2259 66.3306 46.6567 68.9618 46.4387 71.9415L46.2617 74.3597C46.1164 76.3461 46.6217 78.3671 47.6848 80.0511L54.3371 90.588C52.2578 90.8981 50.1411 91.0564 48 91.0564C36.6812 91.0564 26.04 86.6486 18.0364 78.645ZM77.9636 78.645C72.9174 83.6914 66.8222 87.3064 60.1701 89.2903L52.4413 77.0485C52.0159 76.3746 51.8136 75.5657 51.8719 74.7709L52.0489 72.3525C52.1362 71.16 52.764 70.1068 53.7718 69.4633C54.7794 68.8196 55.9986 68.6927 57.1179 69.1155C59.4392 69.9913 61.9659 69.9201 64.2334 68.914L75.0547 64.1132C76.131 63.6356 77.3869 63.6949 78.4134 64.2707L85.5834 68.2939C83.6113 72.0621 81.0574 75.5513 77.9636 78.645Z" fill="url(#paint2_linear)"/>
<defs>
<linearGradient id="paint0_linear" x1="48" y1="0.681396" x2="48" y2="96.6814" gradientUnits="userSpaceOnUse">
<stop stop-color="#5DB3FD"/>
<stop offset="1" stop-color="#0089FF"/>
</linearGradient>
<linearGradient id="paint1_linear" x1="48" y1="0.681396" x2="48" y2="96.6814" gradientUnits="userSpaceOnUse">
<stop offset="0.0454856" stop-color="#5FC5FF" stop-opacity="0.5"/>
<stop offset="0.121476" stop-color="white" stop-opacity="0"/>
</linearGradient>
<linearGradient id="paint2_linear" x1="48" y1="0.681396" x2="48" y2="96.6814" gradientUnits="userSpaceOnUse">
<stop offset="0.913618" stop-color="white" stop-opacity="0"/>
<stop offset="0.974216" stop-color="#132A63" stop-opacity="0.35"/>
</linearGradient>
</defs>
</svg>
