<svg width="52" height="52" viewBox="0 0 52 52" fill="none" xmlns="http://www.w3.org/2000/svg">
<path d="M51.4138 29.1287L44.8463 17.2035C44.5825 16.7246 44.0791 16.4271 43.5323 16.4271H35.1777L38.4739 13.1813C38.9527 12.7098 39.0595 11.9774 38.7354 11.3888L33.0116 0.995638C32.7478 0.516738 32.2444 0.219238 31.6976 0.219238H7.62397C7.07717 0.219238 6.57378 0.516738 6.30998 0.995638L0.586082 11.3889C0.261982 11.9775 0.368782 12.7099 0.847582 13.1814L11.1984 23.3737L8.02897 29.1287C7.70477 29.7173 7.81157 30.4497 8.29037 30.9212L28.669 50.9881C28.9609 51.2755 29.3411 51.4192 29.7213 51.4192C30.1015 51.4192 30.4818 51.2755 30.7737 50.9881L51.1524 30.9212C51.6312 30.4497 51.738 29.7173 51.4138 29.1287V29.1287ZM16.13 20.6378L20.3 28.3523H11.8814L16.13 20.6378ZM34.5244 31.3524L29.7213 45.3095L24.9183 31.3524H34.5244ZM25.4178 28.3524L29.7213 20.9205L34.0249 28.3524H25.4178ZM32.3233 19.4272H40.5571L36.5819 26.7813L32.3233 19.4272ZM22.8609 26.7813L18.8857 19.4272H27.1195L22.8609 26.7813ZM22.2628 3.21924H28.7299L25.6265 9.02804L22.2628 3.21924ZM23.0774 10.6125H16.2444L19.6609 4.71254L23.0774 10.6125ZM13.6952 9.02814L10.5918 3.21924H17.059L13.6952 9.02814ZM23.5769 13.6125L22.617 16.4019C22.6141 16.4103 22.6124 16.4188 22.6097 16.4272H16.7136L15.745 13.6126H23.5769V13.6125ZM21.7457 31.3524L26.2262 44.3724L13.0039 31.3524H21.7457ZM37.697 31.3524H46.4388L33.2164 44.3724L37.697 31.3524ZM47.5614 28.3524H39.1428L43.3128 20.6379L47.5614 28.3524ZM25.7809 16.4272L26.7495 13.6126H33.7604L30.9019 16.4272H25.7809ZM34.883 10.6125H28.1814L31.4813 4.43574L34.883 10.6125ZM7.84037 4.43574L11.1404 10.6125H4.43858L7.84037 4.43574ZM5.56118 13.6125H12.5723L14.1113 18.0845L12.7019 20.6438L5.56118 13.6125Z" fill="#3FDB90"/>
</svg>
