<svg width="70" height="70" viewBox="0 0 70 70" fill="none" xmlns="http://www.w3.org/2000/svg">
<path d="M67.9492 65.8986H63.4485V21.537C63.4485 20.4044 62.5303 19.4863 61.3978 19.4863H50.4865C49.3539 19.4863 48.4357 20.4044 48.4357 21.537V65.8986H43.7354V28.4925C43.7354 27.3599 42.8172 26.4417 41.6846 26.4417H30.7734C29.6408 26.4417 28.7226 27.3599 28.7226 28.4925V65.8986H24.0223V34.0569C24.0223 32.9243 23.1041 32.0061 21.9715 32.0061H11.0605C9.92796 32.0061 9.00977 32.9243 9.00977 34.0569V65.8984H4.1023V2.05154C4.1023 0.918971 3.18411 0.000778198 2.05154 0.000778198C0.918979 0.000778198 0.000785828 0.918971 0.000785828 2.05154V67.9492C0.000785828 69.0818 0.918979 70 2.05154 70H67.9492C69.0818 70 70 69.0818 70 67.9492C70 66.8166 69.0818 65.8986 67.9492 65.8986ZM52.5373 23.5878H59.347V65.8986H52.5373V23.5878ZM32.8243 30.5433H39.634V65.8986H32.8243V30.5433ZM13.1113 36.1076H19.9209V65.8984H13.1113V36.1076Z" fill="#1A3060"/>
<path d="M11.0585 20.7624C11.2275 20.7624 11.3995 20.7414 11.5708 20.6972L57.0905 8.99052L55.8705 11.0439C55.292 12.0174 55.6122 13.2758 56.5859 13.8545C56.9143 14.0497 57.2752 14.1424 57.6314 14.1424C58.3311 14.1424 59.0129 13.7842 59.3964 13.1389L63.1566 6.81112C63.4364 6.34026 63.5161 5.77685 63.378 5.24666C63.2399 4.71661 62.8956 4.2638 62.4214 3.98914L56.0124 0.276446C55.0324 -0.291067 53.7777 0.04307 53.21 1.02306C52.6423 2.00305 52.9764 3.25784 53.9566 3.82549L56.0319 5.02778L10.5491 16.725C9.45225 17.0071 8.79177 18.125 9.07382 19.222C9.31185 20.1476 10.145 20.7624 11.0585 20.7624Z" fill="#1A3060"/>
</svg>
