<svg width="66" height="70" viewBox="0 0 66 70" fill="none" xmlns="http://www.w3.org/2000/svg">
<path d="M37.6324 0C25.8945 0 16.3451 9.62568 16.3451 21.4572C16.3451 33.2888 25.8945 42.9145 37.6324 42.9145C49.3702 42.9145 58.9198 33.2888 58.9198 21.4572C58.9198 9.62568 49.3702 0 37.6324 0V0ZM37.6324 38.8131C28.1561 38.8131 20.4467 31.0274 20.4467 21.4573C20.4467 11.8873 28.1561 4.10156 37.6324 4.10156C47.1086 4.10156 54.8182 11.8873 54.8182 21.4572C54.8182 31.0272 47.1086 38.8131 37.6324 38.8131Z" fill="#1A3060"/>
<path d="M39.8229 19.4858C38.3552 18.967 36.7356 18.3433 35.8516 17.6497C35.7064 17.5359 35.5976 17.1745 35.6815 16.7289C35.723 16.5093 35.9146 15.7753 36.6419 15.5563C38.0133 15.1434 38.9422 15.682 39.2778 15.9329C40.1849 16.611 41.4699 16.4255 42.1483 15.5184C42.8265 14.6113 42.6409 13.3262 41.7338 12.648C41.3943 12.3942 40.5843 11.8618 39.4263 11.5493V11.1843C39.4263 10.0517 38.5081 9.13348 37.3755 9.13348C36.2429 9.13348 35.3247 10.0517 35.3247 11.1843V11.6748C33.4379 12.2985 32.0354 13.9297 31.6511 15.9694C31.2866 17.9032 31.9263 19.7836 33.3204 20.8772C34.6676 21.9339 36.5848 22.6916 38.456 23.3529C39.7983 23.8275 39.8386 24.8503 39.7433 25.4178C39.5806 26.386 38.7659 27.4322 37.3618 27.4416C35.8116 27.4526 35.4063 27.3884 34.252 26.6332C33.3041 26.0131 32.0332 26.2787 31.4132 27.2267C30.793 28.1746 31.0588 29.4455 32.0065 30.0657C33.2683 30.8912 34.2271 31.2698 35.3248 31.4326V31.8397C35.3248 32.9723 36.243 33.8905 37.3756 33.8905C38.5082 33.8905 39.4264 32.9723 39.4264 31.8397V31.2137C41.8675 30.4071 43.4283 28.2388 43.7883 26.0981C44.2825 23.1562 42.6891 20.4992 39.8229 19.4858Z" fill="#1A3060"/>
<path d="M65.3842 49.7045C61.546 45.8661 55.3004 45.866 51.4623 49.7045L45.309 55.8577H42.3908C43.6343 54.1789 44.3704 52.1024 44.3704 49.8576C44.3704 48.7251 43.4522 47.8069 42.3196 47.8069H35.5102C33.2848 47.8069 31.1478 46.7973 28.8852 45.7285C26.5121 44.6075 24.0581 43.4481 21.1888 43.2574C18.6793 43.0902 16.1638 43.365 13.7123 44.0729C11.091 44.8298 9.20552 47.1566 8.97242 49.8445H2.3674C1.23482 49.8445 0.31662 50.7627 0.31662 51.8953V67.9492C0.31662 69.0818 1.23482 70 2.3674 70H44.227C46.6528 70 48.9335 69.0553 50.6492 67.3399L65.3843 52.6047C66.1851 51.8038 66.1851 50.5053 65.3842 49.7045ZM4.41818 53.9459H8.94808V65.8984H4.41818V53.9459ZM47.749 64.4395C46.8081 65.3804 45.5573 65.8984 44.2268 65.8984H13.0495V50.3943C13.0527 49.2976 13.7931 48.3186 14.8501 48.0134C16.8426 47.438 18.8838 47.2144 20.9166 47.3498C23.0096 47.489 25.0125 48.4352 27.1333 49.4371C29.7053 50.6521 32.3647 51.9084 35.5102 51.9084H39.9079C39.0991 54.1257 37.0173 55.7354 34.5514 55.8504C34.4806 55.843 23.9629 55.8389 23.9629 55.8389C22.8304 55.8389 21.9122 56.7571 21.9122 57.8897C21.9122 59.0223 22.8304 59.9405 23.9629 59.9405L46.1584 59.9592C46.7023 59.9592 47.2239 59.7432 47.6084 59.3585L54.3624 52.6047C55.4471 51.52 56.8892 50.9227 58.4232 50.9227C59.2449 50.9227 60.0401 51.0941 60.7684 51.4201L47.749 64.4395Z" fill="#1A3060"/>
</svg>
