<svg width="25" height="26" viewBox="0 0 25 26" fill="none" xmlns="http://www.w3.org/2000/svg">
<g clip-path="url(#clip0)">
<path d="M18.0522 0H6.70026C3.00567 0 0 3.1054 0 6.92257V18.6513C0 22.4683 3.00567 25.5737 6.70026 25.5737H18.0524C21.7468 25.5737 24.7524 22.4683 24.7524 18.6513V6.92257C24.7524 3.1054 21.7468 0 18.0522 0V0ZM23.3013 18.6513C23.3013 21.6416 20.9466 24.0745 18.0522 24.0745H6.70026C3.80581 24.0745 1.45109 21.6416 1.45109 18.6513V6.92257C1.45109 3.93209 3.80581 1.49924 6.70026 1.49924H18.0524C20.9466 1.49924 23.3013 3.93209 23.3013 6.92257V18.6513Z" fill="url(#paint0_linear)"/>
<path d="M18.0522 0H6.70026C3.00567 0 0 3.1054 0 6.92257V18.6513C0 22.4683 3.00567 25.5737 6.70026 25.5737H18.0524C21.7468 25.5737 24.7524 22.4683 24.7524 18.6513V6.92257C24.7524 3.1054 21.7468 0 18.0522 0V0ZM23.3013 18.6513C23.3013 21.6416 20.9466 24.0745 18.0522 24.0745H6.70026C3.80581 24.0745 1.45109 21.6416 1.45109 18.6513V6.92257C1.45109 3.93209 3.80581 1.49924 6.70026 1.49924H18.0524C20.9466 1.49924 23.3013 3.93209 23.3013 6.92257V18.6513Z" fill="url(#paint1_linear)"/>
<path d="M18.0522 0H6.70026C3.00567 0 0 3.1054 0 6.92257V18.6513C0 22.4683 3.00567 25.5737 6.70026 25.5737H18.0524C21.7468 25.5737 24.7524 22.4683 24.7524 18.6513V6.92257C24.7524 3.1054 21.7468 0 18.0522 0V0ZM23.3013 18.6513C23.3013 21.6416 20.9466 24.0745 18.0522 24.0745H6.70026C3.80581 24.0745 1.45109 21.6416 1.45109 18.6513V6.92257C1.45109 3.93209 3.80581 1.49924 6.70026 1.49924H18.0524C20.9466 1.49924 23.3013 3.93209 23.3013 6.92257V18.6513Z" fill="url(#paint2_linear)"/>
<path d="M12.3762 5.79419C8.64423 5.79419 5.60815 8.931 5.60815 12.7868C5.60815 16.6426 8.64423 19.7794 12.3762 19.7794C16.1082 19.7794 19.1443 16.6426 19.1443 12.7868C19.1443 8.931 16.1082 5.79419 12.3762 5.79419ZM12.3762 18.2802C9.44456 18.2802 7.05925 15.8159 7.05925 12.7868C7.05925 9.75789 9.44456 7.29343 12.3762 7.29343C15.308 7.29343 17.6932 9.75789 17.6932 12.7868C17.6932 15.8159 15.308 18.2802 12.3762 18.2802Z" fill="url(#paint3_linear)"/>
<path d="M12.3762 5.79419C8.64423 5.79419 5.60815 8.931 5.60815 12.7868C5.60815 16.6426 8.64423 19.7794 12.3762 19.7794C16.1082 19.7794 19.1443 16.6426 19.1443 12.7868C19.1443 8.931 16.1082 5.79419 12.3762 5.79419ZM12.3762 18.2802C9.44456 18.2802 7.05925 15.8159 7.05925 12.7868C7.05925 9.75789 9.44456 7.29343 12.3762 7.29343C15.308 7.29343 17.6932 9.75789 17.6932 12.7868C17.6932 15.8159 15.308 18.2802 12.3762 18.2802Z" fill="url(#paint4_linear)"/>
<path d="M12.3762 5.79419C8.64423 5.79419 5.60815 8.931 5.60815 12.7868C5.60815 16.6426 8.64423 19.7794 12.3762 19.7794C16.1082 19.7794 19.1443 16.6426 19.1443 12.7868C19.1443 8.931 16.1082 5.79419 12.3762 5.79419ZM12.3762 18.2802C9.44456 18.2802 7.05925 15.8159 7.05925 12.7868C7.05925 9.75789 9.44456 7.29343 12.3762 7.29343C15.308 7.29343 17.6932 9.75789 17.6932 12.7868C17.6932 15.8159 15.308 18.2802 12.3762 18.2802Z" fill="url(#paint5_linear)"/>
<path d="M19.3061 3.31079C18.2033 3.31079 17.3062 4.23777 17.3062 5.37703C17.3062 6.51648 18.2033 7.44346 19.3061 7.44346C20.409 7.44346 21.3062 6.51648 21.3062 5.37703C21.3062 4.23757 20.409 3.31079 19.3061 3.31079ZM19.3061 5.94402C19.0036 5.94402 18.7573 5.6896 18.7573 5.37703C18.7573 5.06426 19.0036 4.81003 19.3061 4.81003C19.6088 4.81003 19.8551 5.06426 19.8551 5.37703C19.8551 5.6896 19.6088 5.94402 19.3061 5.94402Z" fill="url(#paint6_linear)"/>
<path d="M19.3061 3.31079C18.2033 3.31079 17.3062 4.23777 17.3062 5.37703C17.3062 6.51648 18.2033 7.44346 19.3061 7.44346C20.409 7.44346 21.3062 6.51648 21.3062 5.37703C21.3062 4.23757 20.409 3.31079 19.3061 3.31079ZM19.3061 5.94402C19.0036 5.94402 18.7573 5.6896 18.7573 5.37703C18.7573 5.06426 19.0036 4.81003 19.3061 4.81003C19.6088 4.81003 19.8551 5.06426 19.8551 5.37703C19.8551 5.6896 19.6088 5.94402 19.3061 5.94402Z" fill="url(#paint7_linear)"/>
<path d="M19.3061 3.31079C18.2033 3.31079 17.3062 4.23777 17.3062 5.37703C17.3062 6.51648 18.2033 7.44346 19.3061 7.44346C20.409 7.44346 21.3062 6.51648 21.3062 5.37703C21.3062 4.23757 20.409 3.31079 19.3061 3.31079ZM19.3061 5.94402C19.0036 5.94402 18.7573 5.6896 18.7573 5.37703C18.7573 5.06426 19.0036 4.81003 19.3061 4.81003C19.6088 4.81003 19.8551 5.06426 19.8551 5.37703C19.8551 5.6896 19.6088 5.94402 19.3061 5.94402Z" fill="url(#paint8_linear)"/>
</g>
<defs>
<linearGradient id="paint0_linear" x1="12.3762" y1="0" x2="12.3762" y2="25.5737" gradientUnits="userSpaceOnUse">
<stop stop-color="#5DB3FD"/>
<stop offset="1" stop-color="#0089FF"/>
</linearGradient>
<linearGradient id="paint1_linear" x1="12.3762" y1="0" x2="12.3762" y2="25.5737" gradientUnits="userSpaceOnUse">
<stop offset="0.0454856" stop-color="#5FC5FF" stop-opacity="0.5"/>
<stop offset="0.121476" stop-color="white" stop-opacity="0"/>
</linearGradient>
<linearGradient id="paint2_linear" x1="12.3762" y1="0" x2="12.3762" y2="25.5737" gradientUnits="userSpaceOnUse">
<stop offset="0.913618" stop-color="white" stop-opacity="0"/>
<stop offset="0.974216" stop-color="#132A63" stop-opacity="0.35"/>
</linearGradient>
<linearGradient id="paint3_linear" x1="12.3762" y1="5.79419" x2="12.3762" y2="19.7794" gradientUnits="userSpaceOnUse">
<stop stop-color="#5DB3FD"/>
<stop offset="1" stop-color="#0089FF"/>
</linearGradient>
<linearGradient id="paint4_linear" x1="12.3762" y1="5.79419" x2="12.3762" y2="19.7794" gradientUnits="userSpaceOnUse">
<stop offset="0.0454856" stop-color="#5FC5FF" stop-opacity="0.5"/>
<stop offset="0.121476" stop-color="white" stop-opacity="0"/>
</linearGradient>
<linearGradient id="paint5_linear" x1="12.3762" y1="5.79419" x2="12.3762" y2="19.7794" gradientUnits="userSpaceOnUse">
<stop offset="0.913618" stop-color="white" stop-opacity="0"/>
<stop offset="0.974216" stop-color="#132A63" stop-opacity="0.35"/>
</linearGradient>
<linearGradient id="paint6_linear" x1="19.3062" y1="3.31079" x2="19.3062" y2="7.44346" gradientUnits="userSpaceOnUse">
<stop stop-color="#5DB3FD"/>
<stop offset="1" stop-color="#0089FF"/>
</linearGradient>
<linearGradient id="paint7_linear" x1="19.3062" y1="3.31079" x2="19.3062" y2="7.44346" gradientUnits="userSpaceOnUse">
<stop offset="0.0454856" stop-color="#5FC5FF" stop-opacity="0.5"/>
<stop offset="0.121476" stop-color="white" stop-opacity="0"/>
</linearGradient>
<linearGradient id="paint8_linear" x1="19.3062" y1="3.31079" x2="19.3062" y2="7.44346" gradientUnits="userSpaceOnUse">
<stop offset="0.913618" stop-color="white" stop-opacity="0"/>
<stop offset="0.974216" stop-color="#132A63" stop-opacity="0.35"/>
</linearGradient>
<clipPath id="clip0">
<rect width="24.7525" height="25.5738" fill="white"/>
</clipPath>
</defs>
</svg>
