<svg width="25" height="26" viewBox="0 0 25 26" fill="none" xmlns="http://www.w3.org/2000/svg">
<g clip-path="url(#clip0)">
<path d="M18.2999 0H6.9478C3.25321 0 0.247528 3.1054 0.247528 6.92257V18.6511C0.247528 22.4683 3.25321 25.5737 6.9478 25.5737H18.2999C21.9943 25.5737 25 22.4683 25 18.6511V6.92257C25 3.1054 21.9943 0 18.2999 0ZM23.5489 18.6511C23.5489 21.6416 21.1942 24.0745 18.2999 24.0745H6.9478C4.05335 24.0745 1.69862 21.6416 1.69862 18.6511V6.92257C1.69862 3.93209 4.05335 1.49924 6.9478 1.49924H18.2999C21.1942 1.49924 23.5489 3.93209 23.5489 6.92257V18.6511Z" fill="url(#paint0_linear)"/>
<path d="M18.2999 0H6.9478C3.25321 0 0.247528 3.1054 0.247528 6.92257V18.6511C0.247528 22.4683 3.25321 25.5737 6.9478 25.5737H18.2999C21.9943 25.5737 25 22.4683 25 18.6511V6.92257C25 3.1054 21.9943 0 18.2999 0ZM23.5489 18.6511C23.5489 21.6416 21.1942 24.0745 18.2999 24.0745H6.9478C4.05335 24.0745 1.69862 21.6416 1.69862 18.6511V6.92257C1.69862 3.93209 4.05335 1.49924 6.9478 1.49924H18.2999C21.1942 1.49924 23.5489 3.93209 23.5489 6.92257V18.6511Z" fill="url(#paint1_linear)"/>
<path d="M18.2999 0H6.9478C3.25321 0 0.247528 3.1054 0.247528 6.92257V18.6511C0.247528 22.4683 3.25321 25.5737 6.9478 25.5737H18.2999C21.9943 25.5737 25 22.4683 25 18.6511V6.92257C25 3.1054 21.9943 0 18.2999 0ZM23.5489 18.6511C23.5489 21.6416 21.1942 24.0745 18.2999 24.0745H6.9478C4.05335 24.0745 1.69862 21.6416 1.69862 18.6511V6.92257C1.69862 3.93209 4.05335 1.49924 6.9478 1.49924H18.2999C21.1942 1.49924 23.5489 3.93209 23.5489 6.92257V18.6511Z" fill="url(#paint2_linear)"/>
<path d="M10.8424 12.4008C11.6371 12.0434 12.0348 11.2752 12.0348 10.0964C12.0348 8.39595 11.0949 7.54565 9.2151 7.54565H6.5078C6.29251 7.54565 6.10555 7.59872 5.94673 7.70506C5.78754 7.8114 5.70822 7.95636 5.70822 8.13977V17.5602C5.70822 17.7149 5.783 17.8501 5.93276 17.966C6.08214 18.0819 6.27401 18.1398 6.5078 18.1398H9.48175C10.3419 18.1398 11.0246 17.896 11.5298 17.408C12.0348 16.9202 12.2873 16.1399 12.2873 15.0674V14.763C12.2873 14.0868 12.1654 13.5723 11.9224 13.2195C11.6792 12.8669 11.3192 12.5942 10.8424 12.4008ZM7.51775 9.19786H9.07479C9.4302 9.19786 9.70837 9.30654 9.90949 9.52389C10.1104 9.74125 10.2111 10.0384 10.2111 10.4152C10.2111 10.8017 10.1151 11.1061 9.92346 11.3283C9.73178 11.5505 9.45361 11.6615 9.08895 11.6615H7.51775V9.19786ZM10.4636 14.908C10.4636 15.9612 10.01 16.4878 9.10292 16.4878H7.51775V13.1399H9.10292C9.55181 13.1399 9.8906 13.2609 10.1199 13.5022C10.3489 13.7438 10.4636 14.1352 10.4636 14.6762V14.908Z" fill="url(#paint3_linear)"/>
<path d="M10.8424 12.4008C11.6371 12.0434 12.0348 11.2752 12.0348 10.0964C12.0348 8.39595 11.0949 7.54565 9.2151 7.54565H6.5078C6.29251 7.54565 6.10555 7.59872 5.94673 7.70506C5.78754 7.8114 5.70822 7.95636 5.70822 8.13977V17.5602C5.70822 17.7149 5.783 17.8501 5.93276 17.966C6.08214 18.0819 6.27401 18.1398 6.5078 18.1398H9.48175C10.3419 18.1398 11.0246 17.896 11.5298 17.408C12.0348 16.9202 12.2873 16.1399 12.2873 15.0674V14.763C12.2873 14.0868 12.1654 13.5723 11.9224 13.2195C11.6792 12.8669 11.3192 12.5942 10.8424 12.4008ZM7.51775 9.19786H9.07479C9.4302 9.19786 9.70837 9.30654 9.90949 9.52389C10.1104 9.74125 10.2111 10.0384 10.2111 10.4152C10.2111 10.8017 10.1151 11.1061 9.92346 11.3283C9.73178 11.5505 9.45361 11.6615 9.08895 11.6615H7.51775V9.19786ZM10.4636 14.908C10.4636 15.9612 10.01 16.4878 9.10292 16.4878H7.51775V13.1399H9.10292C9.55181 13.1399 9.8906 13.2609 10.1199 13.5022C10.3489 13.7438 10.4636 14.1352 10.4636 14.6762V14.908Z" fill="url(#paint4_linear)"/>
<path d="M10.8424 12.4008C11.6371 12.0434 12.0348 11.2752 12.0348 10.0964C12.0348 8.39595 11.0949 7.54565 9.2151 7.54565H6.5078C6.29251 7.54565 6.10555 7.59872 5.94673 7.70506C5.78754 7.8114 5.70822 7.95636 5.70822 8.13977V17.5602C5.70822 17.7149 5.783 17.8501 5.93276 17.966C6.08214 18.0819 6.27401 18.1398 6.5078 18.1398H9.48175C10.3419 18.1398 11.0246 17.896 11.5298 17.408C12.0348 16.9202 12.2873 16.1399 12.2873 15.0674V14.763C12.2873 14.0868 12.1654 13.5723 11.9224 13.2195C11.6792 12.8669 11.3192 12.5942 10.8424 12.4008ZM7.51775 9.19786H9.07479C9.4302 9.19786 9.70837 9.30654 9.90949 9.52389C10.1104 9.74125 10.2111 10.0384 10.2111 10.4152C10.2111 10.8017 10.1151 11.1061 9.92346 11.3283C9.73178 11.5505 9.45361 11.6615 9.08895 11.6615H7.51775V9.19786ZM10.4636 14.908C10.4636 15.9612 10.01 16.4878 9.10292 16.4878H7.51775V13.1399H9.10292C9.55181 13.1399 9.8906 13.2609 10.1199 13.5022C10.3489 13.7438 10.4636 14.1352 10.4636 14.6762V14.908Z" fill="url(#paint5_linear)"/>
<path d="M18.6978 15.1833C18.894 15.1833 19.053 15.1738 19.1746 15.1546C19.2961 15.1355 19.4294 15.0875 19.5744 15.011C19.7193 14.9346 19.8269 14.8029 19.897 14.6163C19.9672 14.4298 20.0023 14.1931 20.0023 13.9059C20.0023 13.1198 19.7193 12.467 19.1537 11.9478C18.5877 11.4286 17.9073 11.1687 17.1126 11.1687C16.2615 11.1687 15.5367 11.454 14.9382 12.0239C14.3398 12.594 14.0405 13.2753 14.0405 14.0675V15.2992C14.0405 16.1883 14.3562 16.9058 14.9873 17.4515C15.6187 17.9974 16.4345 18.2704 17.4352 18.2704C18.1365 18.2704 18.7233 18.1377 19.1956 17.8718C19.6677 17.6062 19.9041 17.3379 19.9041 17.0673C19.9041 16.8935 19.8386 16.7122 19.7077 16.5239C19.5767 16.3355 19.4131 16.2412 19.2167 16.2412C19.1136 16.2412 18.8893 16.3333 18.5433 16.5167C18.1974 16.7003 17.8467 16.792 17.4913 16.792C16.9955 16.792 16.5982 16.664 16.2991 16.408C15.9996 16.1521 15.8502 15.8163 15.8502 15.4007V15.1833H18.6978ZM15.8502 13.7028C15.8502 13.3871 15.9716 13.1321 16.2148 12.9382C16.4579 12.7442 16.743 12.6471 17.0705 12.6471C17.4163 12.6471 17.7088 12.7466 17.9473 12.9448C18.1856 13.1434 18.305 13.4008 18.305 13.7165C18.305 13.8609 18.2744 13.9578 18.2138 14.0074C18.1528 14.0571 18.0476 14.0819 17.8982 14.0819H15.8502V13.7028Z" fill="url(#paint6_linear)"/>
<path d="M18.6978 15.1833C18.894 15.1833 19.053 15.1738 19.1746 15.1546C19.2961 15.1355 19.4294 15.0875 19.5744 15.011C19.7193 14.9346 19.8269 14.8029 19.897 14.6163C19.9672 14.4298 20.0023 14.1931 20.0023 13.9059C20.0023 13.1198 19.7193 12.467 19.1537 11.9478C18.5877 11.4286 17.9073 11.1687 17.1126 11.1687C16.2615 11.1687 15.5367 11.454 14.9382 12.0239C14.3398 12.594 14.0405 13.2753 14.0405 14.0675V15.2992C14.0405 16.1883 14.3562 16.9058 14.9873 17.4515C15.6187 17.9974 16.4345 18.2704 17.4352 18.2704C18.1365 18.2704 18.7233 18.1377 19.1956 17.8718C19.6677 17.6062 19.9041 17.3379 19.9041 17.0673C19.9041 16.8935 19.8386 16.7122 19.7077 16.5239C19.5767 16.3355 19.4131 16.2412 19.2167 16.2412C19.1136 16.2412 18.8893 16.3333 18.5433 16.5167C18.1974 16.7003 17.8467 16.792 17.4913 16.792C16.9955 16.792 16.5982 16.664 16.2991 16.408C15.9996 16.1521 15.8502 15.8163 15.8502 15.4007V15.1833H18.6978ZM15.8502 13.7028C15.8502 13.3871 15.9716 13.1321 16.2148 12.9382C16.4579 12.7442 16.743 12.6471 17.0705 12.6471C17.4163 12.6471 17.7088 12.7466 17.9473 12.9448C18.1856 13.1434 18.305 13.4008 18.305 13.7165C18.305 13.8609 18.2744 13.9578 18.2138 14.0074C18.1528 14.0571 18.0476 14.0819 17.8982 14.0819H15.8502V13.7028Z" fill="url(#paint7_linear)"/>
<path d="M18.6978 15.1833C18.894 15.1833 19.053 15.1738 19.1746 15.1546C19.2961 15.1355 19.4294 15.0875 19.5744 15.011C19.7193 14.9346 19.8269 14.8029 19.897 14.6163C19.9672 14.4298 20.0023 14.1931 20.0023 13.9059C20.0023 13.1198 19.7193 12.467 19.1537 11.9478C18.5877 11.4286 17.9073 11.1687 17.1126 11.1687C16.2615 11.1687 15.5367 11.454 14.9382 12.0239C14.3398 12.594 14.0405 13.2753 14.0405 14.0675V15.2992C14.0405 16.1883 14.3562 16.9058 14.9873 17.4515C15.6187 17.9974 16.4345 18.2704 17.4352 18.2704C18.1365 18.2704 18.7233 18.1377 19.1956 17.8718C19.6677 17.6062 19.9041 17.3379 19.9041 17.0673C19.9041 16.8935 19.8386 16.7122 19.7077 16.5239C19.5767 16.3355 19.4131 16.2412 19.2167 16.2412C19.1136 16.2412 18.8893 16.3333 18.5433 16.5167C18.1974 16.7003 17.8467 16.792 17.4913 16.792C16.9955 16.792 16.5982 16.664 16.2991 16.408C15.9996 16.1521 15.8502 15.8163 15.8502 15.4007V15.1833H18.6978ZM15.8502 13.7028C15.8502 13.3871 15.9716 13.1321 16.2148 12.9382C16.4579 12.7442 16.743 12.6471 17.0705 12.6471C17.4163 12.6471 17.7088 12.7466 17.9473 12.9448C18.1856 13.1434 18.305 13.4008 18.305 13.7165C18.305 13.8609 18.2744 13.9578 18.2138 14.0074C18.1528 14.0571 18.0476 14.0819 17.8982 14.0819H15.8502V13.7028Z" fill="url(#paint8_linear)"/>
<path d="M19.314 8.88403H14.7761C14.3753 8.88403 14.0503 9.21982 14.0503 9.63365C14.0503 10.0477 14.3753 10.3835 14.7761 10.3835H19.314C19.7148 10.3835 20.0398 10.0477 20.0398 9.63365C20.0398 9.21982 19.7148 8.88403 19.314 8.88403Z" fill="url(#paint9_linear)"/>
<path d="M19.314 8.88403H14.7761C14.3753 8.88403 14.0503 9.21982 14.0503 9.63365C14.0503 10.0477 14.3753 10.3835 14.7761 10.3835H19.314C19.7148 10.3835 20.0398 10.0477 20.0398 9.63365C20.0398 9.21982 19.7148 8.88403 19.314 8.88403Z" fill="url(#paint10_linear)"/>
<path d="M19.314 8.88403H14.7761C14.3753 8.88403 14.0503 9.21982 14.0503 9.63365C14.0503 10.0477 14.3753 10.3835 14.7761 10.3835H19.314C19.7148 10.3835 20.0398 10.0477 20.0398 9.63365C20.0398 9.21982 19.7148 8.88403 19.314 8.88403Z" fill="url(#paint11_linear)"/>
</g>
<defs>
<linearGradient id="paint0_linear" x1="12.6238" y1="0" x2="12.6238" y2="25.5737" gradientUnits="userSpaceOnUse">
<stop stop-color="#5DB3FD"/>
<stop offset="1" stop-color="#0089FF"/>
</linearGradient>
<linearGradient id="paint1_linear" x1="12.6238" y1="0" x2="12.6238" y2="25.5737" gradientUnits="userSpaceOnUse">
<stop offset="0.0454856" stop-color="#5FC5FF" stop-opacity="0.5"/>
<stop offset="0.121476" stop-color="white" stop-opacity="0"/>
</linearGradient>
<linearGradient id="paint2_linear" x1="12.6238" y1="0" x2="12.6238" y2="25.5737" gradientUnits="userSpaceOnUse">
<stop offset="0.913618" stop-color="white" stop-opacity="0"/>
<stop offset="0.974216" stop-color="#132A63" stop-opacity="0.35"/>
</linearGradient>
<linearGradient id="paint3_linear" x1="8.99774" y1="7.54565" x2="8.99774" y2="18.1398" gradientUnits="userSpaceOnUse">
<stop stop-color="#5DB3FD"/>
<stop offset="1" stop-color="#0089FF"/>
</linearGradient>
<linearGradient id="paint4_linear" x1="8.99774" y1="7.54565" x2="8.99774" y2="18.1398" gradientUnits="userSpaceOnUse">
<stop offset="0.0454856" stop-color="#5FC5FF" stop-opacity="0.5"/>
<stop offset="0.121476" stop-color="white" stop-opacity="0"/>
</linearGradient>
<linearGradient id="paint5_linear" x1="8.99774" y1="7.54565" x2="8.99774" y2="18.1398" gradientUnits="userSpaceOnUse">
<stop offset="0.913618" stop-color="white" stop-opacity="0"/>
<stop offset="0.974216" stop-color="#132A63" stop-opacity="0.35"/>
</linearGradient>
<linearGradient id="paint6_linear" x1="17.0214" y1="11.1687" x2="17.0214" y2="18.2704" gradientUnits="userSpaceOnUse">
<stop stop-color="#5DB3FD"/>
<stop offset="1" stop-color="#0089FF"/>
</linearGradient>
<linearGradient id="paint7_linear" x1="17.0214" y1="11.1687" x2="17.0214" y2="18.2704" gradientUnits="userSpaceOnUse">
<stop offset="0.0454856" stop-color="#5FC5FF" stop-opacity="0.5"/>
<stop offset="0.121476" stop-color="white" stop-opacity="0"/>
</linearGradient>
<linearGradient id="paint8_linear" x1="17.0214" y1="11.1687" x2="17.0214" y2="18.2704" gradientUnits="userSpaceOnUse">
<stop offset="0.913618" stop-color="white" stop-opacity="0"/>
<stop offset="0.974216" stop-color="#132A63" stop-opacity="0.35"/>
</linearGradient>
<linearGradient id="paint9_linear" x1="17.045" y1="8.88403" x2="17.045" y2="10.3835" gradientUnits="userSpaceOnUse">
<stop stop-color="#5DB3FD"/>
<stop offset="1" stop-color="#0089FF"/>
</linearGradient>
<linearGradient id="paint10_linear" x1="17.045" y1="8.88403" x2="17.045" y2="10.3835" gradientUnits="userSpaceOnUse">
<stop offset="0.0454856" stop-color="#5FC5FF" stop-opacity="0.5"/>
<stop offset="0.121476" stop-color="white" stop-opacity="0"/>
</linearGradient>
<linearGradient id="paint11_linear" x1="17.045" y1="8.88403" x2="17.045" y2="10.3835" gradientUnits="userSpaceOnUse">
<stop offset="0.913618" stop-color="white" stop-opacity="0"/>
<stop offset="0.974216" stop-color="#132A63" stop-opacity="0.35"/>
</linearGradient>
<clipPath id="clip0">
<rect width="24.7525" height="25.5738" fill="white" transform="translate(0.247528)"/>
</clipPath>
</defs>
</svg>
