<svg width="26" height="26" viewBox="0 0 26 26" fill="none" xmlns="http://www.w3.org/2000/svg">
<g clip-path="url(#clip0)">
<path d="M14.6712 25.5237H10.6995C10.0361 25.5237 9.49649 24.9672 9.49649 24.2832V15.0458H7.17935C6.51596 15.0458 5.97632 14.4891 5.97632 13.8053V9.84702C5.97632 9.16296 6.51596 8.6065 7.17935 8.6065H9.49649V6.62435C9.49649 4.65899 10.095 2.98687 11.2271 1.78908C12.3643 0.585822 13.9535 -0.0500488 15.8229 -0.0500488L18.8519 -0.0449759C19.5142 -0.0438052 20.0529 0.512655 20.0529 1.19555V4.87068C20.0529 5.55475 19.5134 6.11121 18.8502 6.11121L16.8108 6.11199C16.1889 6.11199 16.0305 6.24057 15.9966 6.27998C15.9408 6.34534 15.8744 6.53011 15.8744 7.04033V8.6063H18.6969C18.9094 8.6063 19.1153 8.66035 19.2922 8.7622C19.6739 8.98209 19.9111 9.39787 19.9111 9.84722L19.9096 13.8055C19.9096 14.4891 19.37 15.0456 18.7066 15.0456H15.8744V24.2832C15.8744 24.9672 15.3346 25.5237 14.6712 25.5237ZM10.9504 24.0245H14.4203V14.3746C14.4203 13.9178 14.7807 13.5463 15.2235 13.5463H18.4557L18.457 10.1057H15.2233C14.7805 10.1057 14.4203 9.73425 14.4203 9.27749V7.04033C14.4203 6.4546 14.478 5.78849 14.9067 5.28783C15.4248 4.68259 16.2413 4.61274 16.8104 4.61274L18.5989 4.61196V1.45388L15.8218 1.44919C12.8174 1.44919 10.9504 3.43231 10.9504 6.62435V9.27749C10.9504 9.73405 10.5902 10.1057 10.1474 10.1057H7.43025V13.5463H10.1474C10.5902 13.5463 10.9504 13.9178 10.9504 14.3746V24.0245ZM18.8491 1.45427H18.8492H18.8491Z" fill="url(#paint0_linear)"/>
<path d="M14.6712 25.5237H10.6995C10.0361 25.5237 9.49649 24.9672 9.49649 24.2832V15.0458H7.17935C6.51596 15.0458 5.97632 14.4891 5.97632 13.8053V9.84702C5.97632 9.16296 6.51596 8.6065 7.17935 8.6065H9.49649V6.62435C9.49649 4.65899 10.095 2.98687 11.2271 1.78908C12.3643 0.585822 13.9535 -0.0500488 15.8229 -0.0500488L18.8519 -0.0449759C19.5142 -0.0438052 20.0529 0.512655 20.0529 1.19555V4.87068C20.0529 5.55475 19.5134 6.11121 18.8502 6.11121L16.8108 6.11199C16.1889 6.11199 16.0305 6.24057 15.9966 6.27998C15.9408 6.34534 15.8744 6.53011 15.8744 7.04033V8.6063H18.6969C18.9094 8.6063 19.1153 8.66035 19.2922 8.7622C19.6739 8.98209 19.9111 9.39787 19.9111 9.84722L19.9096 13.8055C19.9096 14.4891 19.37 15.0456 18.7066 15.0456H15.8744V24.2832C15.8744 24.9672 15.3346 25.5237 14.6712 25.5237ZM10.9504 24.0245H14.4203V14.3746C14.4203 13.9178 14.7807 13.5463 15.2235 13.5463H18.4557L18.457 10.1057H15.2233C14.7805 10.1057 14.4203 9.73425 14.4203 9.27749V7.04033C14.4203 6.4546 14.478 5.78849 14.9067 5.28783C15.4248 4.68259 16.2413 4.61274 16.8104 4.61274L18.5989 4.61196V1.45388L15.8218 1.44919C12.8174 1.44919 10.9504 3.43231 10.9504 6.62435V9.27749C10.9504 9.73405 10.5902 10.1057 10.1474 10.1057H7.43025V13.5463H10.1474C10.5902 13.5463 10.9504 13.9178 10.9504 14.3746V24.0245ZM18.8491 1.45427H18.8492H18.8491Z" fill="url(#paint1_linear)"/>
<path d="M14.6712 25.5237H10.6995C10.0361 25.5237 9.49649 24.9672 9.49649 24.2832V15.0458H7.17935C6.51596 15.0458 5.97632 14.4891 5.97632 13.8053V9.84702C5.97632 9.16296 6.51596 8.6065 7.17935 8.6065H9.49649V6.62435C9.49649 4.65899 10.095 2.98687 11.2271 1.78908C12.3643 0.585822 13.9535 -0.0500488 15.8229 -0.0500488L18.8519 -0.0449759C19.5142 -0.0438052 20.0529 0.512655 20.0529 1.19555V4.87068C20.0529 5.55475 19.5134 6.11121 18.8502 6.11121L16.8108 6.11199C16.1889 6.11199 16.0305 6.24057 15.9966 6.27998C15.9408 6.34534 15.8744 6.53011 15.8744 7.04033V8.6063H18.6969C18.9094 8.6063 19.1153 8.66035 19.2922 8.7622C19.6739 8.98209 19.9111 9.39787 19.9111 9.84722L19.9096 13.8055C19.9096 14.4891 19.37 15.0456 18.7066 15.0456H15.8744V24.2832C15.8744 24.9672 15.3346 25.5237 14.6712 25.5237ZM10.9504 24.0245H14.4203V14.3746C14.4203 13.9178 14.7807 13.5463 15.2235 13.5463H18.4557L18.457 10.1057H15.2233C14.7805 10.1057 14.4203 9.73425 14.4203 9.27749V7.04033C14.4203 6.4546 14.478 5.78849 14.9067 5.28783C15.4248 4.68259 16.2413 4.61274 16.8104 4.61274L18.5989 4.61196V1.45388L15.8218 1.44919C12.8174 1.44919 10.9504 3.43231 10.9504 6.62435V9.27749C10.9504 9.73405 10.5902 10.1057 10.1474 10.1057H7.43025V13.5463H10.1474C10.5902 13.5463 10.9504 13.9178 10.9504 14.3746V24.0245ZM18.8491 1.45427H18.8492H18.8491Z" fill="url(#paint2_linear)"/>
</g>
<defs>
<linearGradient id="paint0_linear" x1="13.0146" y1="-0.0500488" x2="13.0146" y2="25.5237" gradientUnits="userSpaceOnUse">
<stop stop-color="#5DB3FD"/>
<stop offset="1" stop-color="#0089FF"/>
</linearGradient>
<linearGradient id="paint1_linear" x1="13.0146" y1="-0.0500488" x2="13.0146" y2="25.5237" gradientUnits="userSpaceOnUse">
<stop offset="0.0454856" stop-color="#5FC5FF" stop-opacity="0.5"/>
<stop offset="0.121476" stop-color="white" stop-opacity="0"/>
</linearGradient>
<linearGradient id="paint2_linear" x1="13.0146" y1="-0.0500488" x2="13.0146" y2="25.5237" gradientUnits="userSpaceOnUse">
<stop offset="0.913618" stop-color="white" stop-opacity="0"/>
<stop offset="0.974216" stop-color="#132A63" stop-opacity="0.35"/>
</linearGradient>
<clipPath id="clip0">
<rect width="24.7525" height="25.5738" fill="white" transform="translate(0.623779)"/>
</clipPath>
</defs>
</svg>
