<svg width="120" height="30" viewBox="0 0 120 30" fill="none" xmlns="http://www.w3.org/2000/svg">
<path d="M49.9844 21.0078V23H42.5781V21.0078H45.2266V9.28906H42.5781V7.29688H49.9844V9.28906H47.3359V21.0078H49.9844ZM61.0703 6.94531C62.2109 6.94531 63.1406 7.10156 63.8594 7.41406C64.5938 7.72656 65.2344 8.13281 65.7812 8.63281V10.9531C65.4375 10.7031 65.0469 10.4297 64.6094 10.1328C64.1875 9.83594 63.6875 9.57812 63.1094 9.35938C62.5469 9.125 61.8672 9.00781 61.0703 9.00781C59.8984 9.00781 58.8516 9.27344 57.9297 9.80469C57.0078 10.3359 56.2812 11.0703 55.75 12.0078C55.2188 12.9297 54.9531 13.9766 54.9531 15.1484C54.9531 16.3203 55.2188 17.3672 55.75 18.2891C56.2812 19.2109 57.0078 19.9453 57.9297 20.4922C58.8516 21.0234 59.8984 21.2891 61.0703 21.2891C62.2734 21.2891 63.2969 21.0938 64.1406 20.7031C65 20.2969 65.7031 19.8828 66.25 19.4609V21.5703C65.7031 22.0547 64.9844 22.4766 64.0938 22.8359C63.2188 23.1797 62.2109 23.3516 61.0703 23.3516C59.8828 23.3516 58.7891 23.1406 57.7891 22.7188C56.7891 22.2812 55.9141 21.6875 55.1641 20.9375C54.4141 20.1875 53.8281 19.3203 53.4062 18.3359C53 17.3359 52.7969 16.2734 52.7969 15.1484C52.7969 14.0234 53 12.9688 53.4062 11.9844C53.8281 10.9844 54.4141 10.1094 55.1641 9.35938C55.9141 8.60938 56.7891 8.02344 57.7891 7.60156C58.7891 7.16406 59.8828 6.94531 61.0703 6.94531ZM79.75 13.9531V15.9453H72.1094V21.0078H80.7578V23H70V7.29688H80.7578V9.28906H72.1094V13.9531H79.75Z" fill="white"/>
<path d="M104.523 7.29688L98.3594 15.3828L104.523 23H101.711L96.9766 16.8594L92.4766 23H89.8984L95.7812 15.1484L89.8984 7.29688H92.7109L97.1641 13.6953L101.711 7.29688H104.523ZM119.617 7.29688L113.453 15.3828L119.617 23H116.805L112.07 16.8594L107.57 23H104.992L110.875 15.1484L104.992 7.29688H107.805L112.258 13.6953L116.805 7.29688H119.617Z" fill="url(#paint0_linear)"/>
<path d="M104.523 7.29688L98.3594 15.3828L104.523 23H101.711L96.9766 16.8594L92.4766 23H89.8984L95.7812 15.1484L89.8984 7.29688H92.7109L97.1641 13.6953L101.711 7.29688H104.523ZM119.617 7.29688L113.453 15.3828L119.617 23H116.805L112.07 16.8594L107.57 23H104.992L110.875 15.1484L104.992 7.29688H107.805L112.258 13.6953L116.805 7.29688H119.617Z" fill="url(#paint1_linear)"/>
<path d="M104.523 7.29688L98.3594 15.3828L104.523 23H101.711L96.9766 16.8594L92.4766 23H89.8984L95.7812 15.1484L89.8984 7.29688H92.7109L97.1641 13.6953L101.711 7.29688H104.523ZM119.617 7.29688L113.453 15.3828L119.617 23H116.805L112.07 16.8594L107.57 23H104.992L110.875 15.1484L104.992 7.29688H107.805L112.258 13.6953L116.805 7.29688H119.617Z" fill="url(#paint2_linear)"/>
<path d="M2.86959 19.1676V20.3531C2.8697 20.6049 2.93789 20.8528 3.06837 21.076C3.19885 21.2993 3.38774 21.4909 3.61898 21.6349L8.87972 16.9359L7.42124 15.6332C7.38222 15.5984 7.3359 15.5707 7.28492 15.5518C7.23395 15.533 7.1793 15.5233 7.12413 15.5233C7.06895 15.5233 7.01431 15.533 6.96335 15.5518C6.91236 15.5707 6.86605 15.5984 6.82702 15.6332L2.86959 19.1676Z" fill="white"/>
<path d="M7.12367 14.095C7.30003 14.0946 7.47473 14.1254 7.63766 14.1858C7.80058 14.246 7.94848 14.3346 8.0728 14.4463L9.86933 16.0509L13.5579 12.7563C13.9405 12.4151 14.459 12.2235 14.9996 12.2235C15.5402 12.2235 16.0588 12.4151 16.4414 12.7563L21.5702 17.3373L23.1553 15.9215C23.4073 15.697 23.7485 15.5709 24.1044 15.5709C24.4603 15.5709 24.8016 15.697 25.0534 15.9215L27.1298 17.7776V9.64758C27.1298 9.37305 27.0489 9.10336 26.8951 8.86563C26.7414 8.62789 26.5204 8.43048 26.2542 8.29321L15.8751 2.9407C15.6089 2.80342 15.3068 2.73114 14.9995 2.73114C14.6921 2.73114 14.3901 2.80342 14.1239 2.9407L3.74458 8.29321C3.47841 8.43048 3.25737 8.62789 3.10367 8.86563C2.94997 9.10336 2.86903 9.37305 2.86897 9.64758V17.3982L6.17396 14.4461C6.29837 14.3344 6.44639 14.2458 6.60941 14.1856C6.77243 14.1254 6.94724 14.0945 7.12367 14.095Z" fill="url(#paint3_linear)"/>
<path d="M7.12367 14.095C7.30003 14.0946 7.47473 14.1254 7.63766 14.1858C7.80058 14.246 7.94848 14.3346 8.0728 14.4463L9.86933 16.0509L13.5579 12.7563C13.9405 12.4151 14.459 12.2235 14.9996 12.2235C15.5402 12.2235 16.0588 12.4151 16.4414 12.7563L21.5702 17.3373L23.1553 15.9215C23.4073 15.697 23.7485 15.5709 24.1044 15.5709C24.4603 15.5709 24.8016 15.697 25.0534 15.9215L27.1298 17.7776V9.64758C27.1298 9.37305 27.0489 9.10336 26.8951 8.86563C26.7414 8.62789 26.5204 8.43048 26.2542 8.29321L15.8751 2.9407C15.6089 2.80342 15.3068 2.73114 14.9995 2.73114C14.6921 2.73114 14.3901 2.80342 14.1239 2.9407L3.74458 8.29321C3.47841 8.43048 3.25737 8.62789 3.10367 8.86563C2.94997 9.10336 2.86903 9.37305 2.86897 9.64758V17.3982L6.17396 14.4461C6.29837 14.3344 6.44639 14.2458 6.60941 14.1856C6.77243 14.1254 6.94724 14.0945 7.12367 14.095Z" fill="url(#paint4_linear)"/>
<path d="M7.12367 14.095C7.30003 14.0946 7.47473 14.1254 7.63766 14.1858C7.80058 14.246 7.94848 14.3346 8.0728 14.4463L9.86933 16.0509L13.5579 12.7563C13.9405 12.4151 14.459 12.2235 14.9996 12.2235C15.5402 12.2235 16.0588 12.4151 16.4414 12.7563L21.5702 17.3373L23.1553 15.9215C23.4073 15.697 23.7485 15.5709 24.1044 15.5709C24.4603 15.5709 24.8016 15.697 25.0534 15.9215L27.1298 17.7776V9.64758C27.1298 9.37305 27.0489 9.10336 26.8951 8.86563C26.7414 8.62789 26.5204 8.43048 26.2542 8.29321L15.8751 2.9407C15.6089 2.80342 15.3068 2.73114 14.9995 2.73114C14.6921 2.73114 14.3901 2.80342 14.1239 2.9407L3.74458 8.29321C3.47841 8.43048 3.25737 8.62789 3.10367 8.86563C2.94997 9.10336 2.86903 9.37305 2.86897 9.64758V17.3982L6.17396 14.4461C6.29837 14.3344 6.44639 14.2458 6.60941 14.1856C6.77243 14.1254 6.94724 14.0945 7.12367 14.095Z" fill="url(#paint5_linear)"/>
<path d="M22.5603 18.2226L26.3798 21.6349C26.6111 21.4908 26.8 21.2991 26.9304 21.0759C27.0608 20.8528 27.1289 20.6048 27.1291 20.353V19.5467L24.4003 17.1093C24.3215 17.039 24.2146 16.9995 24.1032 16.9995C23.9917 16.9995 23.8848 17.039 23.806 17.1093L22.5603 18.2226Z" fill="white"/>
<path d="M21.5699 19.1068L20.5797 18.2225L15.4509 13.6416C15.3312 13.5348 15.169 13.4749 14.9999 13.4749C14.8307 13.4749 14.6685 13.5348 14.5488 13.6416L10.8603 16.9363L9.86992 17.8208L4.86945 22.2867L14.1237 27.0594C14.3899 27.1967 14.6919 27.269 14.9993 27.269C15.3067 27.269 15.6088 27.1967 15.8749 27.0594L25.1292 22.2867L21.5699 19.1068Z" fill="white"/>
<path d="M14.9998 1.29343C15.3431 1.29334 15.6805 1.37404 15.9777 1.52738L27.5734 7.50718C27.8708 7.66054 28.1176 7.88109 28.2892 8.14669C28.4609 8.41229 28.5513 8.71358 28.5513 9.02027V20.9799C28.5513 21.2865 28.4609 21.5877 28.2892 21.8534C28.1176 22.1189 27.8708 22.3395 27.5734 22.4928L15.9777 28.4726C15.6803 28.6259 15.3431 28.7067 14.9997 28.7067C14.6563 28.7067 14.319 28.6259 14.0217 28.4726L2.42604 22.4928C2.12869 22.3395 1.88177 22.1189 1.71011 21.8534C1.53844 21.5877 1.44807 21.2865 1.44808 20.9799V9.02027C1.44807 8.71358 1.53844 8.41229 1.71011 8.14669C1.88179 7.88109 2.12869 7.66054 2.42604 7.50718L14.0217 1.52738C14.319 1.37405 14.6564 1.29336 14.9998 1.29343ZM14.9998 0C14.4023 0.000208422 13.8153 0.14069 13.2978 0.407364L1.702 6.38716C1.18517 6.65467 0.755975 7.03862 0.457305 7.50068C0.158636 7.96275 0.000948981 8.48673 0 9.02027V20.9799C0.000979519 21.5134 0.158698 22.0374 0.457392 22.4994C0.756088 22.9615 1.1853 23.3454 1.70215 23.613L13.2978 29.5928C13.8153 29.8596 14.4023 30 14.9998 30C15.5973 30 16.1843 29.8596 16.7018 29.5928L28.2974 23.613C28.8143 23.3456 29.2437 22.9615 29.5424 22.4996C29.8412 22.0375 29.9989 21.5134 30 20.9799V9.02027C29.9991 8.48673 29.8413 7.96275 29.5427 7.50069C29.244 7.03864 28.8148 6.65467 28.298 6.38716L16.7024 0.407364C16.1849 0.140707 15.5979 0.000227389 15.0004 0H14.9998Z" fill="url(#paint6_linear)"/>
<path d="M14.9998 1.29343C15.3431 1.29334 15.6805 1.37404 15.9777 1.52738L27.5734 7.50718C27.8708 7.66054 28.1176 7.88109 28.2892 8.14669C28.4609 8.41229 28.5513 8.71358 28.5513 9.02027V20.9799C28.5513 21.2865 28.4609 21.5877 28.2892 21.8534C28.1176 22.1189 27.8708 22.3395 27.5734 22.4928L15.9777 28.4726C15.6803 28.6259 15.3431 28.7067 14.9997 28.7067C14.6563 28.7067 14.319 28.6259 14.0217 28.4726L2.42604 22.4928C2.12869 22.3395 1.88177 22.1189 1.71011 21.8534C1.53844 21.5877 1.44807 21.2865 1.44808 20.9799V9.02027C1.44807 8.71358 1.53844 8.41229 1.71011 8.14669C1.88179 7.88109 2.12869 7.66054 2.42604 7.50718L14.0217 1.52738C14.319 1.37405 14.6564 1.29336 14.9998 1.29343ZM14.9998 0C14.4023 0.000208422 13.8153 0.14069 13.2978 0.407364L1.702 6.38716C1.18517 6.65467 0.755975 7.03862 0.457305 7.50068C0.158636 7.96275 0.000948981 8.48673 0 9.02027V20.9799C0.000979519 21.5134 0.158698 22.0374 0.457392 22.4994C0.756088 22.9615 1.1853 23.3454 1.70215 23.613L13.2978 29.5928C13.8153 29.8596 14.4023 30 14.9998 30C15.5973 30 16.1843 29.8596 16.7018 29.5928L28.2974 23.613C28.8143 23.3456 29.2437 22.9615 29.5424 22.4996C29.8412 22.0375 29.9989 21.5134 30 20.9799V9.02027C29.9991 8.48673 29.8413 7.96275 29.5427 7.50069C29.244 7.03864 28.8148 6.65467 28.298 6.38716L16.7024 0.407364C16.1849 0.140707 15.5979 0.000227389 15.0004 0H14.9998Z" fill="url(#paint7_linear)"/>
<path d="M14.9998 1.29343C15.3431 1.29334 15.6805 1.37404 15.9777 1.52738L27.5734 7.50718C27.8708 7.66054 28.1176 7.88109 28.2892 8.14669C28.4609 8.41229 28.5513 8.71358 28.5513 9.02027V20.9799C28.5513 21.2865 28.4609 21.5877 28.2892 21.8534C28.1176 22.1189 27.8708 22.3395 27.5734 22.4928L15.9777 28.4726C15.6803 28.6259 15.3431 28.7067 14.9997 28.7067C14.6563 28.7067 14.319 28.6259 14.0217 28.4726L2.42604 22.4928C2.12869 22.3395 1.88177 22.1189 1.71011 21.8534C1.53844 21.5877 1.44807 21.2865 1.44808 20.9799V9.02027C1.44807 8.71358 1.53844 8.41229 1.71011 8.14669C1.88179 7.88109 2.12869 7.66054 2.42604 7.50718L14.0217 1.52738C14.319 1.37405 14.6564 1.29336 14.9998 1.29343ZM14.9998 0C14.4023 0.000208422 13.8153 0.14069 13.2978 0.407364L1.702 6.38716C1.18517 6.65467 0.755975 7.03862 0.457305 7.50068C0.158636 7.96275 0.000948981 8.48673 0 9.02027V20.9799C0.000979519 21.5134 0.158698 22.0374 0.457392 22.4994C0.756088 22.9615 1.1853 23.3454 1.70215 23.613L13.2978 29.5928C13.8153 29.8596 14.4023 30 14.9998 30C15.5973 30 16.1843 29.8596 16.7018 29.5928L28.2974 23.613C28.8143 23.3456 29.2437 22.9615 29.5424 22.4996C29.8412 22.0375 29.9989 21.5134 30 20.9799V9.02027C29.9991 8.48673 29.8413 7.96275 29.5427 7.50069C29.244 7.03864 28.8148 6.65467 28.298 6.38716L16.7024 0.407364C16.1849 0.140707 15.5979 0.000227389 15.0004 0H14.9998Z" fill="url(#paint8_linear)"/>
<defs>
<linearGradient id="paint0_linear" x1="80" y1="0" x2="80" y2="30" gradientUnits="userSpaceOnUse">
<stop stop-color="#5DB3FD"/>
<stop offset="1" stop-color="#0089FF"/>
</linearGradient>
<linearGradient id="paint1_linear" x1="80" y1="0" x2="80" y2="30" gradientUnits="userSpaceOnUse">
<stop offset="0.0454856" stop-color="#5FC5FF" stop-opacity="0.5"/>
<stop offset="0.121476" stop-color="white" stop-opacity="0"/>
</linearGradient>
<linearGradient id="paint2_linear" x1="80" y1="0" x2="80" y2="30" gradientUnits="userSpaceOnUse">
<stop offset="0.913618" stop-color="white" stop-opacity="0"/>
<stop offset="0.974216" stop-color="#132A63" stop-opacity="0.35"/>
</linearGradient>
<linearGradient id="paint3_linear" x1="14.9994" y1="2.73114" x2="14.9994" y2="17.7776" gradientUnits="userSpaceOnUse">
<stop stop-color="#5DB3FD"/>
<stop offset="1" stop-color="#0089FF"/>
</linearGradient>
<linearGradient id="paint4_linear" x1="14.9994" y1="2.73114" x2="14.9994" y2="17.7776" gradientUnits="userSpaceOnUse">
<stop offset="0.0454856" stop-color="#5FC5FF" stop-opacity="0.5"/>
<stop offset="0.121476" stop-color="white" stop-opacity="0"/>
</linearGradient>
<linearGradient id="paint5_linear" x1="14.9994" y1="2.73114" x2="14.9994" y2="17.7776" gradientUnits="userSpaceOnUse">
<stop offset="0.913618" stop-color="white" stop-opacity="0"/>
<stop offset="0.974216" stop-color="#132A63" stop-opacity="0.35"/>
</linearGradient>
<linearGradient id="paint6_linear" x1="15" y1="0" x2="15" y2="30" gradientUnits="userSpaceOnUse">
<stop stop-color="#5DB3FD"/>
<stop offset="1" stop-color="#0089FF"/>
</linearGradient>
<linearGradient id="paint7_linear" x1="15" y1="0" x2="15" y2="30" gradientUnits="userSpaceOnUse">
<stop offset="0.0454856" stop-color="#5FC5FF" stop-opacity="0.5"/>
<stop offset="0.121476" stop-color="white" stop-opacity="0"/>
</linearGradient>
<linearGradient id="paint8_linear" x1="15" y1="0" x2="15" y2="30" gradientUnits="userSpaceOnUse">
<stop offset="0.913618" stop-color="white" stop-opacity="0"/>
<stop offset="0.974216" stop-color="#132A63" stop-opacity="0.35"/>
</linearGradient>
</defs>
</svg>
