<svg width="76" height="90" viewBox="0 0 76 90" fill="none" xmlns="http://www.w3.org/2000/svg">
<path d="M69.927 32.5679C66.707 27.398 62.2874 23.0913 57.0635 20.0125L61.5944 3.32789C61.8098 2.53529 61.6433 1.68768 61.1444 1.03535C60.6454 0.382676 59.8711 0 59.0498 0H50.9022C45.9592 0 41.2831 2.1048 38 5.66437C34.7168 2.1048 30.0408 0 25.0979 0H16.9502C16.129 0 15.3545 0.382676 14.8556 1.03518C14.3567 1.6875 14.1903 2.53512 14.4056 3.32771L18.5755 18.6829H15.3738C13.5169 18.6829 12.006 17.1722 12.006 15.3153C12.006 13.8591 10.8255 12.6786 9.3693 12.6786C7.91313 12.6786 6.73258 13.8591 6.73258 15.3153C6.73258 19.4855 9.70205 22.9751 13.6374 23.7811C5.49315 30.7044 0.585335 40.8579 0.417112 51.8256C0.262952 61.8799 4.11555 71.4231 11.2651 78.6969C18.4108 85.9667 27.8798 89.981 37.9274 90H38.0006C48.0275 89.9998 57.455 86.1008 64.553 79.0161C71.6686 71.914 75.5873 62.466 75.5873 52.4125C75.5873 45.3756 73.63 38.5135 69.927 32.5679ZM20.3983 5.27344H25.0977C29.4643 5.27344 33.5331 7.62258 35.7165 11.4042C36.1874 12.22 37.0578 12.7225 37.9999 12.7225C38.9419 12.7225 39.8123 12.22 40.2833 11.4042C42.4666 7.62258 46.5354 5.27344 50.9022 5.27344H55.6015L51.96 18.6829H24.04L20.3983 5.27344ZM60.8277 75.2838C54.7251 81.3748 46.6212 84.7269 38.0004 84.7266C37.9798 84.7266 37.958 84.7266 37.9375 84.7266C29.3117 84.7102 21.1749 81.2559 15.0259 75.0002C8.87307 68.7405 5.55748 60.5389 5.68985 51.9064C5.86985 40.1687 12.3669 29.5186 22.6856 23.9565H53.3139C63.8144 29.6144 70.3137 40.4583 70.3137 52.4127C70.3139 61.0555 66.9451 69.178 60.8277 75.2838Z" fill="#3FDB90"/>
<path d="M41.4047 50.9542C39.1377 50.1529 36.6317 49.1859 35.2336 48.0892C34.8244 47.7682 34.6502 47.0185 34.7999 46.2236C34.8755 45.8225 35.2281 44.482 36.5924 44.071C38.8865 43.3804 40.4555 44.2937 41.0236 44.7186C42.1896 45.5905 43.8423 45.3519 44.7143 44.1856C45.5862 43.0193 45.3477 41.367 44.1814 40.4949C43.6554 40.1017 42.351 39.2474 40.4821 38.8143V37.8863C40.4821 36.4302 39.3015 35.2496 37.8453 35.2496C36.3892 35.2496 35.2086 36.4302 35.2086 37.8863V38.9832C35.1627 38.9964 35.1174 39.0078 35.0712 39.0217C32.272 39.8649 30.1823 42.2503 29.6177 45.247C29.0972 48.0089 30.0022 50.6879 31.9792 52.2385C33.5899 53.5018 35.8116 54.5702 39.6475 55.9262C42.1065 56.7953 42.0535 58.7821 41.9168 59.5958C41.6373 61.2585 40.2384 63.0557 37.8279 63.0717C35.4248 63.0876 34.6769 62.9691 32.8363 61.7648C31.6176 60.9676 29.9835 61.3093 29.1862 62.5279C28.389 63.7466 28.7306 65.3806 29.9492 66.178C31.9454 67.4837 33.4273 68.0277 35.2088 68.2335V69.2754C35.2088 70.7316 36.3893 71.9121 37.8455 71.9121C39.3017 71.9121 40.4822 70.7316 40.4822 69.2754V67.976C41.8521 67.5844 43.1012 66.8858 44.1726 65.9015C45.7221 64.4776 46.768 62.5488 47.1175 60.4702C47.8287 56.2377 45.533 52.4136 41.4047 50.9542Z" fill="white"/>
</svg>
