<svg width="90" height="90" viewBox="0 0 90 90" fill="none" xmlns="http://www.w3.org/2000/svg">
<path d="M87.3633 13.0779H67.5376C63.0612 5.27168 54.6356 0 45 0C35.3644 0 26.9388 5.27168 22.4624 13.0779H2.63672C1.18055 13.0779 0 14.2585 0 15.7147V73.7613C0 75.2175 1.18055 76.398 2.63672 76.398H28.8062V84.7266H27.4932C26.0371 84.7266 24.8565 85.9071 24.8565 87.3633C24.8565 88.8195 26.0371 90 27.4932 90H62.5068C63.9629 90 65.1435 88.8195 65.1435 87.3633C65.1435 85.9071 63.9629 84.7266 62.5068 84.7266H61.1938V76.398H87.3633C88.8195 76.398 90 75.2175 90 73.7613V15.7147C90 14.2585 88.8195 13.0779 87.3633 13.0779ZM45 5.27344C56.4019 5.27344 65.6782 14.5332 65.6782 25.9153C65.6782 37.2971 56.4021 46.5569 45 46.5569C33.5979 46.5569 24.3218 37.2971 24.3218 25.9153C24.3218 14.5332 33.5979 5.27344 45 5.27344ZM20.1771 18.3514C19.444 20.7454 19.0484 23.2849 19.0484 25.9151C19.0484 40.2047 30.6902 51.8302 45 51.8302C59.3096 51.8302 70.9516 40.2047 70.9516 25.9151C70.9516 23.2847 70.556 20.7452 69.823 18.3514H84.7266V57.9605H5.27344V18.3514H20.1771ZM55.9204 84.7266H34.0796V76.398H55.9204V84.7266ZM5.27344 71.1246V63.234H84.7266V71.1246H5.27344Z" fill="#3FDB90"/>
<path d="M48.0762 22.9439C46.1389 22.259 44.0005 21.4351 42.8293 20.5165C42.5834 20.3237 42.4795 19.7879 42.5823 19.2424C42.6384 18.9443 42.8989 17.9482 43.8906 17.6493C45.7251 17.097 46.9679 17.819 47.4175 18.1551C48.5838 19.0269 50.2358 18.7884 51.1082 17.6223C51.9801 16.456 51.7417 14.8036 50.5754 13.9316C50.1268 13.5962 49.0509 12.8886 47.5116 12.4821V11.9535C47.5116 10.4973 46.331 9.31677 44.8748 9.31677C43.4187 9.31677 42.2381 10.4973 42.2381 11.9535V12.6448C39.7535 13.4478 37.9048 15.5872 37.4001 18.2658C36.9248 20.7884 37.758 23.2408 39.5749 24.6658C41.3416 26.0515 43.8602 27.0466 46.3189 27.9158C48.13 28.556 48.1841 29.938 48.0553 30.705C47.8366 32.005 46.7427 33.4101 44.8574 33.4225C42.7996 33.4362 42.2619 33.3515 40.7276 32.3478C39.5089 31.5506 37.8749 31.8924 37.0777 33.1109C36.2805 34.3296 36.6223 35.9636 37.8408 36.7608C39.5128 37.8547 40.7786 38.3495 42.2383 38.5585V39.1497C42.2383 40.6058 43.4188 41.7864 44.875 41.7864C46.3312 41.7864 47.5117 40.6058 47.5117 39.1497V38.2794C50.727 37.2366 52.7831 34.3899 53.2557 31.5791C53.9014 27.7374 51.82 24.2673 48.0762 22.9439Z" fill="white"/>
</svg>
