<svg width="82" height="97" viewBox="0 0 82 97" fill="none" xmlns="http://www.w3.org/2000/svg">
<path d="M78.2667 12.2713C71.6111 12.2713 65.5083 8.36365 62.719 2.31583C62.2595 1.31946 61.2624 0.681396 60.1651 0.681396H21.8351C20.7376 0.681396 19.7407 1.31946 19.2811 2.31602C16.4917 8.36365 10.3887 12.2713 3.73325 12.2713C2.18 12.2713 0.920746 13.5306 0.920746 15.0838V46.2296C0.920746 57.8966 11.0525 70.831 19.5519 79.627C24.9764 85.2407 30.0099 89.4623 32.5274 91.479C39.0219 96.6814 40.2121 96.6814 40.9996 96.6814H41.0086C41.7965 96.6814 43.0027 96.6617 49.4724 91.4792C51.9899 89.4626 57.0234 85.2411 62.4479 79.6273C70.9475 70.8311 81.0792 57.8968 81.0792 46.2298V15.0838C81.0792 13.5306 79.82 12.2713 78.2667 12.2713V12.2713ZM75.4542 46.2298C75.4542 53.6271 69.7272 63.756 59.3285 74.7503C51.6774 82.8398 43.7439 89.0186 40.9998 90.7515C38.2559 89.0185 30.3224 82.8396 22.6715 74.7503C12.2727 63.7558 6.54575 53.6271 6.54575 46.2298V17.7205C13.6616 16.827 20.0126 12.5854 23.5529 6.3064H58.4471C61.9874 12.5854 68.3384 16.827 75.4542 17.7205V46.2298Z" fill="url(#paint0_linear)"/>
<path d="M78.2667 12.2713C71.6111 12.2713 65.5083 8.36365 62.719 2.31583C62.2595 1.31946 61.2624 0.681396 60.1651 0.681396H21.8351C20.7376 0.681396 19.7407 1.31946 19.2811 2.31602C16.4917 8.36365 10.3887 12.2713 3.73325 12.2713C2.18 12.2713 0.920746 13.5306 0.920746 15.0838V46.2296C0.920746 57.8966 11.0525 70.831 19.5519 79.627C24.9764 85.2407 30.0099 89.4623 32.5274 91.479C39.0219 96.6814 40.2121 96.6814 40.9996 96.6814H41.0086C41.7965 96.6814 43.0027 96.6617 49.4724 91.4792C51.9899 89.4626 57.0234 85.2411 62.4479 79.6273C70.9475 70.8311 81.0792 57.8968 81.0792 46.2298V15.0838C81.0792 13.5306 79.82 12.2713 78.2667 12.2713V12.2713ZM75.4542 46.2298C75.4542 53.6271 69.7272 63.756 59.3285 74.7503C51.6774 82.8398 43.7439 89.0186 40.9998 90.7515C38.2559 89.0185 30.3224 82.8396 22.6715 74.7503C12.2727 63.7558 6.54575 53.6271 6.54575 46.2298V17.7205C13.6616 16.827 20.0126 12.5854 23.5529 6.3064H58.4471C61.9874 12.5854 68.3384 16.827 75.4542 17.7205V46.2298Z" fill="url(#paint1_linear)"/>
<path d="M78.2667 12.2713C71.6111 12.2713 65.5083 8.36365 62.719 2.31583C62.2595 1.31946 61.2624 0.681396 60.1651 0.681396H21.8351C20.7376 0.681396 19.7407 1.31946 19.2811 2.31602C16.4917 8.36365 10.3887 12.2713 3.73325 12.2713C2.18 12.2713 0.920746 13.5306 0.920746 15.0838V46.2296C0.920746 57.8966 11.0525 70.831 19.5519 79.627C24.9764 85.2407 30.0099 89.4623 32.5274 91.479C39.0219 96.6814 40.2121 96.6814 40.9996 96.6814H41.0086C41.7965 96.6814 43.0027 96.6617 49.4724 91.4792C51.9899 89.4626 57.0234 85.2411 62.4479 79.6273C70.9475 70.8311 81.0792 57.8968 81.0792 46.2298V15.0838C81.0792 13.5306 79.82 12.2713 78.2667 12.2713V12.2713ZM75.4542 46.2298C75.4542 53.6271 69.7272 63.756 59.3285 74.7503C51.6774 82.8398 43.7439 89.0186 40.9998 90.7515C38.2559 89.0185 30.3224 82.8396 22.6715 74.7503C12.2727 63.7558 6.54575 53.6271 6.54575 46.2298V17.7205C13.6616 16.827 20.0126 12.5854 23.5529 6.3064H58.4471C61.9874 12.5854 68.3384 16.827 75.4542 17.7205V46.2298Z" fill="url(#paint2_linear)"/>
<path d="M56.6441 14.7649C56.1845 13.7685 55.1874 13.1302 54.0901 13.1302H27.9103C26.8128 13.1302 25.8159 13.7683 25.3563 14.7649C23.5963 18.5809 19.7458 21.0465 15.5467 21.0465C13.9934 21.0465 12.7342 22.3058 12.7342 23.859V45.1318C12.7342 53.3983 19.7904 62.436 25.7099 68.562C29.4491 72.432 32.9201 75.3428 34.6561 76.7334C39.3361 80.4823 40.2202 80.4823 40.9998 80.4823H41.0118C41.7892 80.4823 42.6884 80.4628 47.3441 76.7336C49.0803 75.3429 52.5511 72.4322 56.2904 68.5622C62.2098 62.436 69.2662 53.3983 69.2662 45.1318V23.859C69.2662 22.3058 68.0069 21.0465 66.4537 21.0465C62.2543 21.0465 58.4038 18.5809 56.6441 14.7649V14.7649ZM63.6412 45.1318C63.6412 49.9172 59.8689 56.5622 53.0189 63.8423C48.0886 69.0821 43.1064 73.0238 41 74.4683C38.8938 73.0238 33.9116 69.0821 28.9813 63.8423C22.1313 56.5622 18.359 49.9172 18.359 45.1318V26.427C23.0075 25.6129 27.1304 22.8137 29.5946 18.7552H52.4054C54.8696 22.8139 58.9925 25.6129 63.6412 26.427V45.1318Z" fill="white"/>
<path d="M44.2372 41.5568C42.0655 40.7892 39.6674 39.865 38.3452 38.8277C38.0298 38.5804 37.8969 37.9438 38.0221 37.2799C38.0883 36.9291 38.3954 35.7565 39.5724 35.4019C41.6754 34.7685 43.1056 35.5999 43.6229 35.9865C44.8668 36.9167 46.6295 36.6623 47.5597 35.4186C48.4899 34.1745 48.2354 32.412 46.9917 31.4818C46.4885 31.1055 45.2679 30.304 43.5205 29.8609V29.1705C43.5205 27.6173 42.2613 26.358 40.708 26.358C39.1548 26.358 37.8955 27.6173 37.8955 29.1705V30.0347C35.1224 30.8929 33.055 33.2637 32.4944 36.2383C31.973 39.0057 32.8848 41.6938 34.8736 43.2537C36.8307 44.7887 39.6295 45.8942 42.3624 46.86C44.4729 47.6061 44.5353 49.2203 44.3845 50.1162C44.132 51.6188 42.8677 53.2425 40.6889 53.257C38.3995 53.2737 37.7395 53.1688 36.0087 52.0365C34.7086 51.186 32.9658 51.5505 32.1153 52.8505C31.2648 54.1504 31.6293 55.8934 32.9292 56.7439C34.817 57.9788 36.236 58.5242 37.8952 58.7462V59.5181C37.8952 61.0714 39.1544 62.3306 40.7077 62.3306C42.2609 62.3306 43.5202 61.0714 43.5202 59.5181V58.453C47.1106 57.3295 49.4071 54.1684 49.9316 51.0488C50.6418 46.8263 48.3532 43.0118 44.2372 41.5568V41.5568Z" fill="url(#paint3_linear)"/>
<path d="M44.2372 41.5568C42.0655 40.7892 39.6674 39.865 38.3452 38.8277C38.0298 38.5804 37.8969 37.9438 38.0221 37.2799C38.0883 36.9291 38.3954 35.7565 39.5724 35.4019C41.6754 34.7685 43.1056 35.5999 43.6229 35.9865C44.8668 36.9167 46.6295 36.6623 47.5597 35.4186C48.4899 34.1745 48.2354 32.412 46.9917 31.4818C46.4885 31.1055 45.2679 30.304 43.5205 29.8609V29.1705C43.5205 27.6173 42.2613 26.358 40.708 26.358C39.1548 26.358 37.8955 27.6173 37.8955 29.1705V30.0347C35.1224 30.8929 33.055 33.2637 32.4944 36.2383C31.973 39.0057 32.8848 41.6938 34.8736 43.2537C36.8307 44.7887 39.6295 45.8942 42.3624 46.86C44.4729 47.6061 44.5353 49.2203 44.3845 50.1162C44.132 51.6188 42.8677 53.2425 40.6889 53.257C38.3995 53.2737 37.7395 53.1688 36.0087 52.0365C34.7086 51.186 32.9658 51.5505 32.1153 52.8505C31.2648 54.1504 31.6293 55.8934 32.9292 56.7439C34.817 57.9788 36.236 58.5242 37.8952 58.7462V59.5181C37.8952 61.0714 39.1544 62.3306 40.7077 62.3306C42.2609 62.3306 43.5202 61.0714 43.5202 59.5181V58.453C47.1106 57.3295 49.4071 54.1684 49.9316 51.0488C50.6418 46.8263 48.3532 43.0118 44.2372 41.5568V41.5568Z" fill="url(#paint4_linear)"/>
<path d="M44.2372 41.5568C42.0655 40.7892 39.6674 39.865 38.3452 38.8277C38.0298 38.5804 37.8969 37.9438 38.0221 37.2799C38.0883 36.9291 38.3954 35.7565 39.5724 35.4019C41.6754 34.7685 43.1056 35.5999 43.6229 35.9865C44.8668 36.9167 46.6295 36.6623 47.5597 35.4186C48.4899 34.1745 48.2354 32.412 46.9917 31.4818C46.4885 31.1055 45.2679 30.304 43.5205 29.8609V29.1705C43.5205 27.6173 42.2613 26.358 40.708 26.358C39.1548 26.358 37.8955 27.6173 37.8955 29.1705V30.0347C35.1224 30.8929 33.055 33.2637 32.4944 36.2383C31.973 39.0057 32.8848 41.6938 34.8736 43.2537C36.8307 44.7887 39.6295 45.8942 42.3624 46.86C44.4729 47.6061 44.5353 49.2203 44.3845 50.1162C44.132 51.6188 42.8677 53.2425 40.6889 53.257C38.3995 53.2737 37.7395 53.1688 36.0087 52.0365C34.7086 51.186 32.9658 51.5505 32.1153 52.8505C31.2648 54.1504 31.6293 55.8934 32.9292 56.7439C34.817 57.9788 36.236 58.5242 37.8952 58.7462V59.5181C37.8952 61.0714 39.1544 62.3306 40.7077 62.3306C42.2609 62.3306 43.5202 61.0714 43.5202 59.5181V58.453C47.1106 57.3295 49.4071 54.1684 49.9316 51.0488C50.6418 46.8263 48.3532 43.0118 44.2372 41.5568V41.5568Z" fill="url(#paint5_linear)"/>
<defs>
<linearGradient id="paint0_linear" x1="41" y1="0.681396" x2="41" y2="96.6814" gradientUnits="userSpaceOnUse">
<stop stop-color="#5DB3FD"/>
<stop offset="1" stop-color="#0089FF"/>
</linearGradient>
<linearGradient id="paint1_linear" x1="41" y1="0.681396" x2="41" y2="96.6814" gradientUnits="userSpaceOnUse">
<stop offset="0.0454856" stop-color="#5FC5FF" stop-opacity="0.5"/>
<stop offset="0.121476" stop-color="white" stop-opacity="0"/>
</linearGradient>
<linearGradient id="paint2_linear" x1="41" y1="0.681396" x2="41" y2="96.6814" gradientUnits="userSpaceOnUse">
<stop offset="0.913618" stop-color="white" stop-opacity="0"/>
<stop offset="0.974216" stop-color="#132A63" stop-opacity="0.35"/>
</linearGradient>
<linearGradient id="paint3_linear" x1="40.8579" y1="26.358" x2="40.8579" y2="62.3307" gradientUnits="userSpaceOnUse">
<stop stop-color="#5DB3FD"/>
<stop offset="1" stop-color="#0089FF"/>
</linearGradient>
<linearGradient id="paint4_linear" x1="40.8579" y1="26.358" x2="40.8579" y2="62.3307" gradientUnits="userSpaceOnUse">
<stop offset="0.0454856" stop-color="#5FC5FF" stop-opacity="0.5"/>
<stop offset="0.121476" stop-color="white" stop-opacity="0"/>
</linearGradient>
<linearGradient id="paint5_linear" x1="40.8579" y1="26.358" x2="40.8579" y2="62.3307" gradientUnits="userSpaceOnUse">
<stop offset="0.913618" stop-color="white" stop-opacity="0"/>
<stop offset="0.974216" stop-color="#132A63" stop-opacity="0.35"/>
</linearGradient>
</defs>
</svg>
