<svg width="72" height="97" viewBox="0 0 72 97" fill="none" xmlns="http://www.w3.org/2000/svg">
<path d="M35.9998 0.815918C16.5117 0.815918 0.657318 16.6705 0.657318 36.1586V36.2589C0.657318 37.5391 1.5218 38.6581 2.76096 38.981C3.99975 39.3039 5.3006 38.7494 5.92543 37.6318C7.07571 35.5745 9.2508 34.2965 11.6022 34.2965C13.9535 34.2965 16.1288 35.5745 17.2789 37.6318C17.776 38.521 18.7189 39.072 19.7375 39.072C20.7562 39.072 21.6955 38.521 22.1928 37.6318C23.3431 35.5745 25.5181 34.2965 27.8695 34.2965C29.9964 34.2965 31.9765 35.3446 33.1868 37.0668V43.7233C27.3322 44.3399 21.6443 46.885 17.1669 51.3621C6.78242 61.7466 6.78242 78.6431 17.1669 89.0277C22.3591 94.2198 29.1796 96.8159 35.9998 96.8159C42.8199 96.8159 49.6401 94.2198 54.8325 89.0277C65.217 78.6431 65.217 61.7466 54.8325 51.3621C50.3552 46.8848 44.6672 44.3397 38.8125 43.7233V37.0718C40.0226 35.3466 42.0043 34.2963 44.1335 34.2963C46.4848 34.2963 48.6601 35.5743 49.8102 37.6316C50.3073 38.5208 51.2466 39.0718 52.2655 39.0718C53.2843 39.0718 54.2234 38.5208 54.7207 37.6316C55.871 35.5743 58.0461 34.2963 60.3974 34.2963C62.7488 34.2963 64.9241 35.5743 66.0742 37.6316C66.5799 38.5362 67.5286 39.072 68.5291 39.072C68.7644 39.072 69.0027 39.0423 69.2386 38.981C70.4776 38.6581 71.3423 37.5393 71.3423 36.2589V36.1586C71.3427 16.6705 55.4879 0.815918 35.9998 0.815918V0.815918ZM50.8547 85.0495C42.6635 93.2408 29.3359 93.2404 21.1451 85.0495C12.954 76.8585 12.954 63.5307 21.1451 55.3397C25.2406 51.2442 30.6201 49.1964 36 49.1964C41.3797 49.1964 46.7592 51.2442 50.8547 55.3397C59.0458 63.5309 59.0458 76.8586 50.8547 85.0495ZM60.3978 28.6706C57.3511 28.6706 54.4636 29.8192 52.2658 31.8056C50.0679 29.8192 47.1806 28.6706 44.1339 28.6706C41.0871 28.6706 38.1997 29.8192 36.0019 31.8056C33.8039 29.8192 30.9166 28.6706 27.8699 28.6706C24.8224 28.6706 21.9344 29.8199 19.7362 31.8071C17.5379 29.8199 14.6498 28.6706 11.6024 28.6706C10.0052 28.6706 8.45176 28.9864 7.0187 29.5729C10.0223 16.3452 21.8762 6.44164 35.9998 6.44164C50.1236 6.44164 61.9775 16.3452 64.9815 29.5729C63.5484 28.9864 61.9948 28.6706 60.3978 28.6706Z" fill="url(#paint0_linear)"/>
<path d="M35.9998 0.815918C16.5117 0.815918 0.657318 16.6705 0.657318 36.1586V36.2589C0.657318 37.5391 1.5218 38.6581 2.76096 38.981C3.99975 39.3039 5.3006 38.7494 5.92543 37.6318C7.07571 35.5745 9.2508 34.2965 11.6022 34.2965C13.9535 34.2965 16.1288 35.5745 17.2789 37.6318C17.776 38.521 18.7189 39.072 19.7375 39.072C20.7562 39.072 21.6955 38.521 22.1928 37.6318C23.3431 35.5745 25.5181 34.2965 27.8695 34.2965C29.9964 34.2965 31.9765 35.3446 33.1868 37.0668V43.7233C27.3322 44.3399 21.6443 46.885 17.1669 51.3621C6.78242 61.7466 6.78242 78.6431 17.1669 89.0277C22.3591 94.2198 29.1796 96.8159 35.9998 96.8159C42.8199 96.8159 49.6401 94.2198 54.8325 89.0277C65.217 78.6431 65.217 61.7466 54.8325 51.3621C50.3552 46.8848 44.6672 44.3397 38.8125 43.7233V37.0718C40.0226 35.3466 42.0043 34.2963 44.1335 34.2963C46.4848 34.2963 48.6601 35.5743 49.8102 37.6316C50.3073 38.5208 51.2466 39.0718 52.2655 39.0718C53.2843 39.0718 54.2234 38.5208 54.7207 37.6316C55.871 35.5743 58.0461 34.2963 60.3974 34.2963C62.7488 34.2963 64.9241 35.5743 66.0742 37.6316C66.5799 38.5362 67.5286 39.072 68.5291 39.072C68.7644 39.072 69.0027 39.0423 69.2386 38.981C70.4776 38.6581 71.3423 37.5393 71.3423 36.2589V36.1586C71.3427 16.6705 55.4879 0.815918 35.9998 0.815918V0.815918ZM50.8547 85.0495C42.6635 93.2408 29.3359 93.2404 21.1451 85.0495C12.954 76.8585 12.954 63.5307 21.1451 55.3397C25.2406 51.2442 30.6201 49.1964 36 49.1964C41.3797 49.1964 46.7592 51.2442 50.8547 55.3397C59.0458 63.5309 59.0458 76.8586 50.8547 85.0495ZM60.3978 28.6706C57.3511 28.6706 54.4636 29.8192 52.2658 31.8056C50.0679 29.8192 47.1806 28.6706 44.1339 28.6706C41.0871 28.6706 38.1997 29.8192 36.0019 31.8056C33.8039 29.8192 30.9166 28.6706 27.8699 28.6706C24.8224 28.6706 21.9344 29.8199 19.7362 31.8071C17.5379 29.8199 14.6498 28.6706 11.6024 28.6706C10.0052 28.6706 8.45176 28.9864 7.0187 29.5729C10.0223 16.3452 21.8762 6.44164 35.9998 6.44164C50.1236 6.44164 61.9775 16.3452 64.9815 29.5729C63.5484 28.9864 61.9948 28.6706 60.3978 28.6706Z" fill="url(#paint1_linear)"/>
<path d="M35.9998 0.815918C16.5117 0.815918 0.657318 16.6705 0.657318 36.1586V36.2589C0.657318 37.5391 1.5218 38.6581 2.76096 38.981C3.99975 39.3039 5.3006 38.7494 5.92543 37.6318C7.07571 35.5745 9.2508 34.2965 11.6022 34.2965C13.9535 34.2965 16.1288 35.5745 17.2789 37.6318C17.776 38.521 18.7189 39.072 19.7375 39.072C20.7562 39.072 21.6955 38.521 22.1928 37.6318C23.3431 35.5745 25.5181 34.2965 27.8695 34.2965C29.9964 34.2965 31.9765 35.3446 33.1868 37.0668V43.7233C27.3322 44.3399 21.6443 46.885 17.1669 51.3621C6.78242 61.7466 6.78242 78.6431 17.1669 89.0277C22.3591 94.2198 29.1796 96.8159 35.9998 96.8159C42.8199 96.8159 49.6401 94.2198 54.8325 89.0277C65.217 78.6431 65.217 61.7466 54.8325 51.3621C50.3552 46.8848 44.6672 44.3397 38.8125 43.7233V37.0718C40.0226 35.3466 42.0043 34.2963 44.1335 34.2963C46.4848 34.2963 48.6601 35.5743 49.8102 37.6316C50.3073 38.5208 51.2466 39.0718 52.2655 39.0718C53.2843 39.0718 54.2234 38.5208 54.7207 37.6316C55.871 35.5743 58.0461 34.2963 60.3974 34.2963C62.7488 34.2963 64.9241 35.5743 66.0742 37.6316C66.5799 38.5362 67.5286 39.072 68.5291 39.072C68.7644 39.072 69.0027 39.0423 69.2386 38.981C70.4776 38.6581 71.3423 37.5393 71.3423 36.2589V36.1586C71.3427 16.6705 55.4879 0.815918 35.9998 0.815918V0.815918ZM50.8547 85.0495C42.6635 93.2408 29.3359 93.2404 21.1451 85.0495C12.954 76.8585 12.954 63.5307 21.1451 55.3397C25.2406 51.2442 30.6201 49.1964 36 49.1964C41.3797 49.1964 46.7592 51.2442 50.8547 55.3397C59.0458 63.5309 59.0458 76.8586 50.8547 85.0495ZM60.3978 28.6706C57.3511 28.6706 54.4636 29.8192 52.2658 31.8056C50.0679 29.8192 47.1806 28.6706 44.1339 28.6706C41.0871 28.6706 38.1997 29.8192 36.0019 31.8056C33.8039 29.8192 30.9166 28.6706 27.8699 28.6706C24.8224 28.6706 21.9344 29.8199 19.7362 31.8071C17.5379 29.8199 14.6498 28.6706 11.6024 28.6706C10.0052 28.6706 8.45176 28.9864 7.0187 29.5729C10.0223 16.3452 21.8762 6.44164 35.9998 6.44164C50.1236 6.44164 61.9775 16.3452 64.9815 29.5729C63.5484 28.9864 61.9948 28.6706 60.3978 28.6706Z" fill="url(#paint2_linear)"/>
<path d="M33.187 57.1597V57.5746C30.7407 58.3937 28.9243 60.512 28.4255 63.1578C27.9502 65.6811 28.789 68.1382 30.6145 69.57C32.3407 70.9239 34.7807 71.8887 37.1604 72.73C38.6227 73.247 38.7712 74.2971 38.6385 75.0871C38.448 76.2196 37.495 77.4434 35.8528 77.4543C33.9189 77.4706 33.4658 77.3956 32.0519 76.4705C30.7516 75.6199 29.0084 75.9844 28.1579 77.2845C27.3075 78.5846 27.6719 80.3279 28.972 81.1785C30.5258 82.1949 31.7492 82.6865 33.1014 82.9108V83.2298C33.1014 84.7833 34.3609 86.0427 35.9143 86.0427C37.4678 86.0427 38.7272 84.7833 38.7272 83.2298V82.5875C41.7803 81.4926 43.7294 78.7384 44.1864 76.0203C44.8292 72.1961 42.7593 68.7424 39.0353 67.426C37.2 66.7774 35.177 65.999 34.0863 65.1437C33.992 65.0696 33.8564 64.7171 33.9539 64.1999C34.0003 63.9538 34.2135 63.1332 35.0101 62.893C36.6442 62.4013 37.7417 63.037 38.138 63.3331C39.382 64.2634 41.1447 64.009 42.0751 62.7649C43.0054 61.5209 42.7509 59.7582 41.5069 58.8279C41.0966 58.5209 40.155 57.8996 38.8127 57.4889V57.16C38.8127 55.6066 37.5533 54.3472 35.9998 54.3472C34.4464 54.3472 33.187 55.6062 33.187 57.1597V57.1597Z" fill="white"/>
<defs>
<linearGradient id="paint0_linear" x1="35.9998" y1="0.815918" x2="35.9998" y2="96.8159" gradientUnits="userSpaceOnUse">
<stop stop-color="#5DB3FD"/>
<stop offset="1" stop-color="#0089FF"/>
</linearGradient>
<linearGradient id="paint1_linear" x1="35.9998" y1="0.815918" x2="35.9998" y2="96.8159" gradientUnits="userSpaceOnUse">
<stop offset="0.0454856" stop-color="#5FC5FF" stop-opacity="0.5"/>
<stop offset="0.121476" stop-color="white" stop-opacity="0"/>
</linearGradient>
<linearGradient id="paint2_linear" x1="35.9998" y1="0.815918" x2="35.9998" y2="96.8159" gradientUnits="userSpaceOnUse">
<stop offset="0.913618" stop-color="white" stop-opacity="0"/>
<stop offset="0.974216" stop-color="#132A63" stop-opacity="0.35"/>
</linearGradient>
</defs>
</svg>
