<svg width="94" height="96" viewBox="0 0 94 96" fill="none" xmlns="http://www.w3.org/2000/svg">
<path d="M92.8353 2.50412H46.1647C42.7325 1.42075 39.0611 0.83252 35.2463 0.83252C16.2753 0.83252 0.841339 15.3529 0.841339 33.201C0.841339 45.2148 7.83471 55.7203 18.1922 61.3052V93.0011C18.1922 94.5345 19.5135 95.7776 21.1433 95.7776H92.8353C94.4651 95.7776 95.7864 94.5345 95.7864 93.0011V5.28056C95.7864 3.74722 94.4651 2.50412 92.8353 2.50412V2.50412ZM6.74358 33.201C6.74358 18.4148 19.5298 6.38539 35.2463 6.38539C50.9628 6.38539 63.749 18.4148 63.749 33.201C63.749 47.9871 50.9628 60.0167 35.2461 60.0167C19.5298 60.0167 6.74358 47.9871 6.74358 33.201V33.201ZM89.8842 90.2249H24.0944V63.8232C27.5933 64.9541 31.3447 65.5696 35.2463 65.5696H80.851C82.4808 65.5696 83.8021 64.3265 83.8021 62.7931C83.8021 61.2598 82.4808 60.0167 80.851 60.0167H54.4957C57.9202 57.8339 60.9065 55.0865 63.302 51.9175H80.8512C82.481 51.9175 83.8023 50.6744 83.8023 49.141C83.8023 47.6077 82.481 46.3646 80.8512 46.3646H66.6752C68.5867 42.3408 69.6515 37.8859 69.6515 33.2011C69.6515 30.2287 69.2212 27.3493 68.4199 24.6133H80.851C82.4808 24.6133 83.8021 23.3701 83.8021 21.8368C83.8021 20.3035 82.4808 19.0604 80.851 19.0604H66.1898C63.9715 14.7812 60.779 11.0283 56.8859 8.05718H89.8842V90.2249Z" fill="url(#paint0_linear)"/>
<path d="M92.8353 2.50412H46.1647C42.7325 1.42075 39.0611 0.83252 35.2463 0.83252C16.2753 0.83252 0.841339 15.3529 0.841339 33.201C0.841339 45.2148 7.83471 55.7203 18.1922 61.3052V93.0011C18.1922 94.5345 19.5135 95.7776 21.1433 95.7776H92.8353C94.4651 95.7776 95.7864 94.5345 95.7864 93.0011V5.28056C95.7864 3.74722 94.4651 2.50412 92.8353 2.50412V2.50412ZM6.74358 33.201C6.74358 18.4148 19.5298 6.38539 35.2463 6.38539C50.9628 6.38539 63.749 18.4148 63.749 33.201C63.749 47.9871 50.9628 60.0167 35.2461 60.0167C19.5298 60.0167 6.74358 47.9871 6.74358 33.201V33.201ZM89.8842 90.2249H24.0944V63.8232C27.5933 64.9541 31.3447 65.5696 35.2463 65.5696H80.851C82.4808 65.5696 83.8021 64.3265 83.8021 62.7931C83.8021 61.2598 82.4808 60.0167 80.851 60.0167H54.4957C57.9202 57.8339 60.9065 55.0865 63.302 51.9175H80.8512C82.481 51.9175 83.8023 50.6744 83.8023 49.141C83.8023 47.6077 82.481 46.3646 80.8512 46.3646H66.6752C68.5867 42.3408 69.6515 37.8859 69.6515 33.2011C69.6515 30.2287 69.2212 27.3493 68.4199 24.6133H80.851C82.4808 24.6133 83.8021 23.3701 83.8021 21.8368C83.8021 20.3035 82.4808 19.0604 80.851 19.0604H66.1898C63.9715 14.7812 60.779 11.0283 56.8859 8.05718H89.8842V90.2249Z" fill="url(#paint1_linear)"/>
<path d="M92.8353 2.50412H46.1647C42.7325 1.42075 39.0611 0.83252 35.2463 0.83252C16.2753 0.83252 0.841339 15.3529 0.841339 33.201C0.841339 45.2148 7.83471 55.7203 18.1922 61.3052V93.0011C18.1922 94.5345 19.5135 95.7776 21.1433 95.7776H92.8353C94.4651 95.7776 95.7864 94.5345 95.7864 93.0011V5.28056C95.7864 3.74722 94.4651 2.50412 92.8353 2.50412V2.50412ZM6.74358 33.201C6.74358 18.4148 19.5298 6.38539 35.2463 6.38539C50.9628 6.38539 63.749 18.4148 63.749 33.201C63.749 47.9871 50.9628 60.0167 35.2461 60.0167C19.5298 60.0167 6.74358 47.9871 6.74358 33.201V33.201ZM89.8842 90.2249H24.0944V63.8232C27.5933 64.9541 31.3447 65.5696 35.2463 65.5696H80.851C82.4808 65.5696 83.8021 64.3265 83.8021 62.7931C83.8021 61.2598 82.4808 60.0167 80.851 60.0167H54.4957C57.9202 57.8339 60.9065 55.0865 63.302 51.9175H80.8512C82.481 51.9175 83.8023 50.6744 83.8023 49.141C83.8023 47.6077 82.481 46.3646 80.8512 46.3646H66.6752C68.5867 42.3408 69.6515 37.8859 69.6515 33.2011C69.6515 30.2287 69.2212 27.3493 68.4199 24.6133H80.851C82.4808 24.6133 83.8021 23.3701 83.8021 21.8368C83.8021 20.3035 82.4808 19.0604 80.851 19.0604H66.1898C63.9715 14.7812 60.779 11.0283 56.8859 8.05718H89.8842V90.2249Z" fill="url(#paint2_linear)"/>
<path d="M43.8166 73.6516C43.8156 73.6516 43.8144 73.6516 43.8134 73.6516C40.237 73.6551 36.6683 73.6607 33.1203 73.6688C31.4919 73.6725 30.1743 74.9166 30.1765 76.4486C30.1784 77.9806 31.4992 79.2217 33.1276 79.2217H43.8166C45.4464 79.2217 46.7677 77.9786 46.7677 76.4453V76.428C46.7677 75.6912 46.4562 74.9845 45.9022 74.4638C45.3488 73.9437 44.5988 73.6516 43.8166 73.6516V73.6516Z" fill="url(#paint3_linear)"/>
<path d="M43.8166 73.6516C43.8156 73.6516 43.8144 73.6516 43.8134 73.6516C40.237 73.6551 36.6683 73.6607 33.1203 73.6688C31.4919 73.6725 30.1743 74.9166 30.1765 76.4486C30.1784 77.9806 31.4992 79.2217 33.1276 79.2217H43.8166C45.4464 79.2217 46.7677 77.9786 46.7677 76.4453V76.428C46.7677 75.6912 46.4562 74.9845 45.9022 74.4638C45.3488 73.9437 44.5988 73.6516 43.8166 73.6516V73.6516Z" fill="url(#paint4_linear)"/>
<path d="M43.8166 73.6516C43.8156 73.6516 43.8144 73.6516 43.8134 73.6516C40.237 73.6551 36.6683 73.6607 33.1203 73.6688C31.4919 73.6725 30.1743 74.9166 30.1765 76.4486C30.1784 77.9806 31.4992 79.2217 33.1276 79.2217H43.8166C45.4464 79.2217 46.7677 77.9786 46.7677 76.4453V76.428C46.7677 75.6912 46.4562 74.9845 45.9022 74.4638C45.3488 73.9437 44.5988 73.6516 43.8166 73.6516V73.6516Z" fill="url(#paint5_linear)"/>
<path d="M80.851 73.6688H55.3039C53.6741 73.6688 52.3528 74.9119 52.3528 76.4453C52.3528 77.9786 53.6741 79.2217 55.3039 79.2217H80.851C82.4808 79.2217 83.8021 77.9786 83.8021 76.4453C83.8021 74.9119 82.4808 73.6688 80.851 73.6688Z" fill="url(#paint6_linear)"/>
<path d="M80.851 73.6688H55.3039C53.6741 73.6688 52.3528 74.9119 52.3528 76.4453C52.3528 77.9786 53.6741 79.2217 55.3039 79.2217H80.851C82.4808 79.2217 83.8021 77.9786 83.8021 76.4453C83.8021 74.9119 82.4808 73.6688 80.851 73.6688Z" fill="url(#paint7_linear)"/>
<path d="M80.851 73.6688H55.3039C53.6741 73.6688 52.3528 74.9119 52.3528 76.4453C52.3528 77.9786 53.6741 79.2217 55.3039 79.2217H80.851C82.4808 79.2217 83.8021 77.9786 83.8021 76.4453C83.8021 74.9119 82.4808 73.6688 80.851 73.6688Z" fill="url(#paint8_linear)"/>
<path d="M29.6716 24.173C29.5677 21.99 27.7898 20.1437 25.3888 20.1437C23.1485 20.1437 21.0024 21.997 21.1059 24.173C21.2098 26.356 22.9877 28.2024 25.3888 28.2024C27.6291 28.2024 29.7751 26.349 29.6716 24.173Z" fill="white"/>
<path d="M40.821 42.5179C40.9248 44.7009 42.7028 46.5472 45.1038 46.5472C47.3441 46.5472 49.4902 44.6939 49.3867 42.5179C49.2828 40.3349 47.5049 38.4885 45.1038 38.4885C42.8635 38.4887 40.7173 40.3419 40.821 42.5179V42.5179Z" fill="white"/>
<path d="M43.9232 14.0718C42.4205 13.4786 40.6907 14.1438 40.06 15.5576L25.4621 48.2819C24.8314 49.6959 25.5385 51.3231 27.0414 51.9165C27.4144 52.0636 27.8014 52.1334 28.1821 52.1334C29.3352 52.1334 30.4305 51.4935 30.9044 50.4307L45.5022 17.7063C46.133 16.2924 45.4259 14.6652 43.9232 14.0718V14.0718Z" fill="white"/>
<defs>
<linearGradient id="paint0_linear" x1="48.3139" y1="0.83252" x2="48.3139" y2="95.7776" gradientUnits="userSpaceOnUse">
<stop stop-color="#5DB3FD"/>
<stop offset="1" stop-color="#0089FF"/>
</linearGradient>
<linearGradient id="paint1_linear" x1="48.3139" y1="0.83252" x2="48.3139" y2="95.7776" gradientUnits="userSpaceOnUse">
<stop offset="0.0454856" stop-color="#5FC5FF" stop-opacity="0.5"/>
<stop offset="0.121476" stop-color="white" stop-opacity="0"/>
</linearGradient>
<linearGradient id="paint2_linear" x1="48.3139" y1="0.83252" x2="48.3139" y2="95.7776" gradientUnits="userSpaceOnUse">
<stop offset="0.913618" stop-color="white" stop-opacity="0"/>
<stop offset="0.974216" stop-color="#132A63" stop-opacity="0.35"/>
</linearGradient>
<linearGradient id="paint3_linear" x1="38.4721" y1="73.6516" x2="38.4721" y2="79.2217" gradientUnits="userSpaceOnUse">
<stop stop-color="#5DB3FD"/>
<stop offset="1" stop-color="#0089FF"/>
</linearGradient>
<linearGradient id="paint4_linear" x1="38.4721" y1="73.6516" x2="38.4721" y2="79.2217" gradientUnits="userSpaceOnUse">
<stop offset="0.0454856" stop-color="#5FC5FF" stop-opacity="0.5"/>
<stop offset="0.121476" stop-color="white" stop-opacity="0"/>
</linearGradient>
<linearGradient id="paint5_linear" x1="38.4721" y1="73.6516" x2="38.4721" y2="79.2217" gradientUnits="userSpaceOnUse">
<stop offset="0.913618" stop-color="white" stop-opacity="0"/>
<stop offset="0.974216" stop-color="#132A63" stop-opacity="0.35"/>
</linearGradient>
<linearGradient id="paint6_linear" x1="68.0774" y1="73.6688" x2="68.0774" y2="79.2217" gradientUnits="userSpaceOnUse">
<stop stop-color="#5DB3FD"/>
<stop offset="1" stop-color="#0089FF"/>
</linearGradient>
<linearGradient id="paint7_linear" x1="68.0774" y1="73.6688" x2="68.0774" y2="79.2217" gradientUnits="userSpaceOnUse">
<stop offset="0.0454856" stop-color="#5FC5FF" stop-opacity="0.5"/>
<stop offset="0.121476" stop-color="white" stop-opacity="0"/>
</linearGradient>
<linearGradient id="paint8_linear" x1="68.0774" y1="73.6688" x2="68.0774" y2="79.2217" gradientUnits="userSpaceOnUse">
<stop offset="0.913618" stop-color="white" stop-opacity="0"/>
<stop offset="0.974216" stop-color="#132A63" stop-opacity="0.35"/>
</linearGradient>
</defs>
</svg>
