<svg width="52" height="45" viewBox="0 0 52 45" fill="none" xmlns="http://www.w3.org/2000/svg">
<path d="M34.4191 0.0280762H28.2227C27.3927 0.0280762 26.7199 0.700917 26.7199 1.53085V4.11281C21.6942 4.81471 13.7708 5.18769 9.76822 5.18769C4.60259 5.18769 0.40004 9.39015 0.40004 14.5558C0.40004 19.0827 3.62779 22.8698 7.90278 23.7371V42.9858C7.90278 43.8157 8.57562 44.4886 9.40555 44.4886H18.1369C18.9668 44.4886 19.6396 43.8157 19.6396 42.9858V33.0286H19.8896C20.7195 33.0286 21.3924 32.3558 21.3924 31.5259C21.3924 30.6959 20.7195 30.0231 19.8896 30.0231H19.6396V24.3111C22.1737 24.4845 24.6856 24.7146 26.7199 24.9986V27.5806C26.7199 28.4105 27.3927 29.0834 28.2227 29.0834H34.4191C35.249 29.0834 35.9219 28.4105 35.9219 27.5806V1.53085C35.9219 0.700917 35.249 0.0280762 34.4191 0.0280762V0.0280762ZM16.6341 41.483H10.9083V23.9327C12.51 23.9553 14.5134 24.0221 16.6341 24.1313V41.483ZM9.76822 20.9184C6.25985 20.9184 3.40558 18.0641 3.40558 14.5558C3.40558 11.0474 6.25985 8.19324 9.76822 8.19324C13.7493 8.19324 21.5377 7.83027 26.7199 7.14581V21.9653C21.3511 21.2521 13.5879 20.9184 9.76822 20.9184V20.9184ZM32.9163 26.0779H29.7254V3.03362H32.9163V26.0779Z" fill="#3FDB90"/>
<path d="M48.1598 12.7414C46.8004 12.2609 45.2971 11.6804 44.4537 11.0191C44.1887 10.8113 44.0741 10.3355 44.1684 9.83494C44.2155 9.58538 44.4353 8.75094 45.2888 8.49377C46.6901 8.07189 47.6512 8.63152 47.9995 8.8918C48.6646 9.38872 49.6061 9.25257 50.1029 8.58784C50.5998 7.92311 50.4638 6.98138 49.799 6.48446C49.4835 6.24863 48.6934 5.73167 47.5608 5.48061V4.86898C47.5608 4.03905 46.888 3.36621 46.0581 3.36621C45.2281 3.36621 44.5553 4.03905 44.5553 4.86898V5.57859C44.5109 5.59101 44.4668 5.60244 44.422 5.61596C42.7761 6.11177 41.5472 7.51506 41.2149 9.27831C40.909 10.9013 41.4393 12.4745 42.5989 13.384C43.5542 14.1333 44.8753 14.768 47.1582 15.5751C48.6783 16.1124 48.6453 17.3426 48.5606 17.8465C48.3888 18.8684 47.5293 19.9726 46.048 19.9825C44.5955 19.9921 44.1426 19.9201 43.0269 19.1902C42.3322 18.7359 41.4009 18.9305 40.9465 19.6251C40.4922 20.3197 40.6869 21.251 41.3814 21.7053C42.5851 22.4927 43.4731 22.812 44.5553 22.9285V23.6154C44.5553 24.4453 45.2281 25.1181 46.0581 25.1181C46.888 25.1181 47.5608 24.4453 47.5608 23.6154V22.7841C48.3888 22.5562 49.1432 22.1398 49.788 21.5473C50.7017 20.7078 51.3185 19.5704 51.5245 18.3446C51.9434 15.8527 50.5912 13.6009 48.1598 12.7414V12.7414Z" fill="#3FDB90"/>
</svg>
