<svg width="706" height="670" viewBox="0 0 706 670" fill="none" xmlns="http://www.w3.org/2000/svg">
<path d="M17 0.987915V0.987915C8.16344 0.987915 1 8.15136 1 16.9879V120.956C1 134.21 11.7452 144.956 25 144.956H73" stroke="#3FDB90"/>
<path d="M201 144.956H441" stroke="#3FDB90"/>
<path d="M201 416.895H441" stroke="#3FDB90"/>
<path d="M73 417.395H25C11.7452 417.395 1 428.14 1 441.395V640.339C1 653.594 11.7452 664.339 25 664.339H271.5" stroke="#3FDB90"/>
<path d="M278 664.839L270.5 669.168L270.5 660.51L278 664.839Z" fill="white"/>
<path d="M577 144.456H681C694.255 144.456 705 155.201 705 168.456V392.895C705 406.149 694.255 416.895 681 416.895H585.5" stroke="#3FDB90"/>
<path d="M79 144.956L71.5 149.285L71.5 140.627L79 144.956Z" fill="white"/>
<path d="M446 144.956L438.5 149.285L438.5 140.627L446 144.956Z" fill="white"/>
<path d="M579 416.895L586.5 421.224L586.5 412.565L579 416.895Z" fill="white"/>
<path d="M196 416.895L203.5 421.224L203.5 412.565L196 416.895Z" fill="white"/>
</svg>
