<svg width="52" height="40" viewBox="0 0 52 40" fill="none" xmlns="http://www.w3.org/2000/svg">
<path d="M50.1 0.963623H1.89999C1.07159 0.963623 0.399994 1.63522 0.399994 2.46362V38.0527C0.399994 38.8811 1.07159 39.5527 1.89999 39.5527H50.1C50.9284 39.5527 51.6 38.8811 51.6 38.0527V2.46362C51.6 1.63522 50.9284 0.963623 50.1 0.963623V0.963623ZM48.6 36.5528H3.39999V3.96362H48.6V36.5528Z" fill="#3FDB90"/>
<path d="M8.20538 17.5183H25.7171C26.5456 17.5183 27.2171 16.8467 27.2171 16.0183C27.2171 15.1899 26.5456 14.5183 25.7171 14.5183H8.20538C7.37698 14.5183 6.70538 15.1899 6.70538 16.0183C6.70538 16.8467 7.37698 17.5183 8.20538 17.5183Z" fill="#3FDB90"/>
<path d="M8.20538 11.8025H21.0325C21.8609 11.8025 22.5325 11.1309 22.5325 10.3025C22.5325 9.47409 21.8609 8.80249 21.0325 8.80249H8.20538C7.37698 8.80249 6.70538 9.47409 6.70538 10.3025C6.70538 11.1309 7.37698 11.8025 8.20538 11.8025Z" fill="#3FDB90"/>
<path d="M8.20538 31.8139H12.307C13.0329 31.8139 13.6546 31.2941 13.7833 30.5798L14.9028 24.3636L15.8429 29.5837C16.0756 30.876 17.1975 31.8139 18.5106 31.8139C19.8237 31.8139 20.9456 30.876 21.1783 29.5837L21.6433 27.0016L22.2877 30.5797C22.4164 31.2941 23.0381 31.8138 23.764 31.8138H25.7339C26.5624 31.8138 27.2339 31.1422 27.2339 30.3138C27.2339 29.4854 26.5624 28.8138 25.7339 28.8138H25.018L24.3079 24.871C24.0754 23.5802 22.9548 22.6434 21.6433 22.6434C20.3318 22.6434 19.2112 23.5802 18.9787 24.871L18.5106 27.4703L17.5705 22.2502C17.3378 20.9579 16.2159 20.02 14.9028 20.02C13.5897 20.02 12.4678 20.9579 12.2351 22.2502L11.053 28.8139H8.20538C7.37698 28.8139 6.70538 29.4855 6.70538 30.3139C6.70538 31.1423 7.37698 31.8139 8.20538 31.8139V31.8139Z" fill="#3FDB90"/>
<path d="M33.4202 21.179V30.1322C33.4202 30.6737 33.7121 31.1732 34.1839 31.439C34.6556 31.7048 35.234 31.6958 35.6973 31.4152L38.2226 29.8858L40.748 31.4152C40.9866 31.5597 41.2557 31.6321 41.5251 31.6321C41.7787 31.6321 42.0327 31.5678 42.2614 31.4389C42.7332 31.173 43.0251 30.6736 43.0251 30.1321V21.1788C44.4956 19.8596 45.4228 17.9464 45.4228 15.82C45.4228 11.8498 42.1928 8.61987 38.2227 8.61987C34.2526 8.61987 31.0227 11.8498 31.0227 15.82C31.0226 17.9465 31.9497 19.8598 33.4202 21.179V21.179ZM40.025 27.4701L38.9996 26.8491C38.5219 26.5598 37.9232 26.5598 37.4455 26.8491L36.4202 27.47V22.7916C36.9964 22.9407 37.6004 23.0201 38.2225 23.0201C38.8447 23.0201 39.4487 22.9407 40.0249 22.7916V27.4701H40.025ZM38.2226 11.6201C40.5385 11.6201 42.4227 13.5043 42.4227 15.8202C42.4227 18.1361 40.5385 20.0202 38.2226 20.0202C35.9067 20.0202 34.0226 18.1361 34.0226 15.8202C34.0226 13.5043 35.9066 11.6201 38.2226 11.6201Z" fill="#3FDB90"/>
</svg>
