<svg width="52" height="56" viewBox="0 0 52 56" fill="none" xmlns="http://www.w3.org/2000/svg">
<path d="M51.6 19.8134V14.7282C51.6 13.8334 50.8746 13.108 49.9798 13.108H43.8339C39.7533 13.108 36.6604 15.0725 34.4052 19.1062H31.0152C32.9435 17.142 34.1351 14.4525 34.1351 11.4891C34.135 5.48899 29.2537 0.607666 23.2536 0.607666C17.2535 0.607666 12.3722 5.48899 12.3722 11.4891C12.3722 14.5194 13.6176 17.2641 15.6233 19.2388C11.3665 19.8469 7.7638 22.5108 5.85665 26.19C4.6208 26.1072 3.64028 25.076 3.64028 23.8196C3.64028 23.4981 3.70293 23.1872 3.82649 22.895C4.17504 22.0709 3.78944 21.1203 2.96532 20.7717C2.14077 20.4233 1.19049 20.8089 0.84205 21.6329C0.548694 22.3265 0.399963 23.0622 0.399963 23.8196C0.399963 26.4712 2.24759 28.698 4.72265 29.2841C4.50955 30.2197 4.39657 31.1929 4.39657 32.192C4.39657 37.7729 7.05093 42.9462 11.5411 46.2036V48.9414C11.5411 52.7833 14.6667 55.9091 18.5088 55.9091H21.6334C22.5282 55.9091 23.2536 55.1837 23.2536 54.2889V49.5021H28.0534C28.3399 53.0827 31.3455 55.9091 34.9986 55.9091H38.1233C39.018 55.9091 39.7434 55.1837 39.7434 54.2889V46.8551C41.3115 45.8051 42.6891 44.4733 43.79 42.9427H49.5169C50.4116 42.9427 51.137 42.2173 51.137 41.3226V31.7371C51.137 30.8423 50.4116 30.1169 49.5169 30.1169H46.7352V27.2903C49.6524 25.9987 51.6 23.0822 51.6 19.8134V19.8134ZM23.2536 3.84798C27.467 3.84798 30.8947 7.2757 30.8947 11.4891C30.8947 15.5085 27.7746 18.8105 23.8295 19.1062H22.6777C18.7326 18.8105 15.6125 15.5085 15.6125 11.4891C15.6125 7.2757 19.0402 3.84798 23.2536 3.84798V3.84798ZM45.1151 33.3573H47.8968V39.7025H42.9305C42.3757 39.7025 41.8595 39.9864 41.5623 40.455C40.4969 42.135 39.0249 43.5548 37.3052 44.5609C36.8085 44.8516 36.5032 45.3839 36.5032 45.9593V52.6687H34.9988C32.9435 52.6687 31.2714 50.9967 31.2714 48.9414V47.8818C31.2714 46.9871 30.546 46.2617 29.6513 46.2617H21.7091L21.6404 46.2608C21.6382 46.2608 21.6358 46.2608 21.6335 46.2608C21.2052 46.2608 20.7941 46.4305 20.4904 46.7329C20.185 47.037 20.0134 47.4501 20.0134 47.881V52.6687H18.5089C16.4537 52.6687 14.7816 50.9967 14.7816 48.9414V45.3519C14.7816 44.8037 14.5045 44.2928 14.045 43.9939C10.0326 41.383 7.63699 36.971 7.63699 32.192C7.63699 26.7632 12.0538 22.3464 17.4825 22.3464H35.384C36.0011 22.3464 36.5645 21.9959 36.8372 21.4425C38.5971 17.8717 40.6896 16.3483 43.8338 16.3483H48.3596V19.8133C48.3596 22.0471 46.8539 24.0083 44.6981 24.5824C43.9887 24.7715 43.4949 25.4138 43.4949 26.1481V31.7371C43.495 32.6319 44.2203 33.3573 45.1151 33.3573V33.3573Z" fill="#3FDB90"/>
<path d="M29.3251 26.196H17.1821C16.2873 26.196 15.562 26.9214 15.562 27.8162C15.562 28.711 16.2873 29.4364 17.1821 29.4364H29.3251C30.2198 29.4364 30.9452 28.711 30.9452 27.8162C30.9452 26.9214 30.2198 26.196 29.3251 26.196Z" fill="#3FDB90"/>
</svg>
