<svg width="50" height="50" viewBox="0 0 50 50" fill="none" xmlns="http://www.w3.org/2000/svg">
<path d="M26.049 16.6813C25.7923 16.2383 25.3177 15.9653 24.8041 15.9653C24.2905 15.9653 23.816 16.2383 23.5592 16.6813L5.80918 47.3054C5.55235 47.7485 5.55235 48.2943 5.80918 48.7373C6.06592 49.1802 6.54048 49.4532 7.05405 49.4532H42.5542C43.0677 49.4532 43.5423 49.1803 43.799 48.7373C44.0559 48.2942 44.0559 47.7484 43.799 47.3054L26.049 16.6813ZM9.5439 46.5895L24.8041 20.2611L40.0643 46.5895H9.5439Z" fill="#3FDB90"/>
<path d="M23.3666 29.415V35.2609C23.3666 36.0517 24.0102 36.6928 24.8041 36.6928C25.598 36.6928 26.2416 36.0516 26.2416 35.2609V29.415C26.2416 28.6242 25.598 27.9832 24.8041 27.9832C24.0102 27.9832 23.3666 28.6242 23.3666 29.415Z" fill="#3FDB90"/>
<path d="M42.3477 7.54408C37.7139 2.92845 31.5531 0.386475 25 0.386475C18.4469 0.386475 12.2861 2.92845 7.65235 7.54408C3.01861 12.1597 0.466667 18.2966 0.466667 24.8241C0.466667 25.6149 1.11028 26.2559 1.90417 26.2559H11.8964C12.6903 26.2559 13.3339 25.6148 13.3339 24.8241C13.3339 21.72 14.5474 18.8019 16.7508 16.6071C18.9543 14.4123 21.8839 13.2035 25 13.2035C28.1161 13.2035 31.0457 14.4124 33.2492 16.6071C35.4526 18.802 36.6661 21.7201 36.6661 24.8241C36.6661 25.6149 37.3097 26.2559 38.1036 26.2559H48.0958C48.8897 26.2559 49.5333 25.6148 49.5333 24.8241C49.5333 18.2966 46.9814 12.1597 42.3477 7.54408ZM10.5286 23.3922H3.38834C3.69855 18.6429 5.55015 14.1916 8.7021 10.6148L13.7513 15.6444C11.9221 17.8601 10.808 20.537 10.5286 23.3922ZM15.7837 13.6189L10.7357 8.59048C14.6852 5.13732 19.6967 3.25026 25 3.25026C30.3033 3.25026 35.3148 5.13732 39.2643 8.59048L34.2163 13.6189C31.6234 11.4949 28.4008 10.3397 25 10.3397C21.5992 10.3397 18.3766 11.4949 15.7837 13.6189ZM39.4714 23.3922C39.192 20.537 38.0779 17.8601 36.2487 15.6443L41.2979 10.6147C44.4499 14.1915 46.3014 18.6428 46.6117 23.3921H39.4714V23.3922Z" fill="#3FDB90"/>
<path d="M24.8041 43.465C25.6754 43.465 26.3816 42.7615 26.3816 41.8936C26.3816 41.0258 25.6754 40.3223 24.8041 40.3223C23.9329 40.3223 23.2266 41.0258 23.2266 41.8936C23.2266 42.7615 23.9329 43.465 24.8041 43.465Z" fill="#3FDB90"/>
</svg>
