<svg width="1198" height="449" viewBox="0 0 1198 449" fill="none" xmlns="http://www.w3.org/2000/svg">
<path d="M236 174.403H386" stroke="#3FDB90"/>
<path d="M510 174.403H657.5" stroke="#3FDB90"/>
<path d="M783 174.403H930.5" stroke="#3FDB90"/>
<path d="M1056.5 174.403H1161C1180.88 174.403 1197 190.521 1197 210.403V407.299C1197 427.181 1180.88 443.299 1161 443.299H667.5" stroke="#3FDB90"/>
<path d="M77.4978 0.970215H37C17.1177 0.970215 1 17.088 1 36.9702V138.403C1 158.285 17.1177 174.403 37 174.403H116" stroke="#3FDB90"/>
<path d="M113.464 170.908L119.464 174.376L113.464 177.845L113.464 170.908Z" fill="white"/>
<path d="M668.464 439.804L662.464 443.272L668.464 446.741L668.464 439.804Z" fill="white"/>
<path d="M384.464 170.908L390.464 174.376L384.464 177.845L384.464 170.908Z" fill="white"/>
<path d="M656.464 170.908L662.464 174.376L656.464 177.845L656.464 170.908Z" fill="white"/>
<path d="M929.464 170.908L935.464 174.376L929.464 177.845L929.464 170.908Z" fill="white"/>
</svg>
